<svg xmlns="http://www.w3.org/2000/svg"
	width="512" 
    height="512" 
    viewBox="0 0 512 512">
    <path
        d="M290.57333 109.21332c-8.45749 -8.04498 -3.83999 -29.013308 -3.83999 -29.013308 0 0 0.38015 -1.528595 1.27386 -4.031311 5.13971 -14.393066 27.26401 -61.003937 91.73947 -34.368713 0 0 -16.21335 4.266662 -16.21335 4.266662 0 0 52.05335 2.84668 52.05335 87.04001 0 84.19333 0 198.82666 0 198.82666 0 0 -39.82666 35.40668 -89.60001 -23.03998C276.21332 250.44665 290 163 290 163c0 0 9.03082 -45.74167 0.57333 -53.78668z"
        fill="#3b444f" />
    <path
        d="M256.86667 94.706665c59.146 0 107.09332 47.947325 107.09332 107.093325 0 0 0 22.18667 0 22.18667 0 59.146 -47.94732 107.09333 -107.09332 107.09333 -59.146 0 -107.09332 -47.94733 -107.09332 -107.09333 0 0 0 -22.18667 0 -22.18667 0 -59.146 47.94732 -107.093325 107.09332 -107.093325z"
        fill="#3b444f" />
    <path
        d="M117.35998 502c0 0 -6.61498 -89.98822 78.08002 -98.38666 0 0 37.97333 0 37.97333 0 0 0 0 -17.49334 0 -17.49334 0 0 26.71167 11.47332 53.76001 1.27999 0 0 0.85333 16.21335 0.85333 16.21335 0 0 44.37332 0 44.37332 0 0 0 75.98542 2.98425 72.53333 99.23999 0 0 -287.57334 -0.85333 -287.57334 -0.85333z"
        fill="#ffffff" />
    <path
        d="M404.67526 505.58667c0 0 0 0 0 0 0 0 -284.51639 0 -284.51639 0 0 0 0 0 0 0 0 0 -5.51788 0 -5.51788 0 0 0 1.37735 -23.52982 1.37735 -23.52982 2.6893 -45.94223 38.88687 -81.00351 80.31 -81.00351 0 0 31.52499 0 31.52499 0 0 0 0 4.69333 0 4.69333 0 0 -29.01028 0 -29.01028 0 -39.92337 0 -74.8104 33.74842 -77.40235 77.97034 0 0 -0.95672 16.323 -0.95672 16.323 0 0 283.43951 0 283.43951 0 0 0 -0.53006 -16.323 -0.53006 -16.323 -2.59195 -44.22192 -37.47897 -77.97034 -77.40237 -77.97034 0 0 -38.83106 0 -38.83106 0 0 0 0 -4.69333 0 -4.69333 0 0 41.09275 0 41.09275 0 41.42312 0 77.62069 35.06128 80.30999 81.00351 0 0 1.37735 23.52982 1.37735 23.52982 0 0 -5.26483 0 -5.26483 0z"
        fill="#3b434f" />
    <path
        d="M258.72 453.95999c-22.85721 0 -41.38669 -18.52942 -41.38669 -41.38666 0 -3.99945 0.57862 -7.86163 1.63715 -11.51999 0 0 0.0695 0 0.0695 0 0 0 4.39178 0 4.39178 0 0 0 7.55487 0 7.55487 0 0 0 0 4.69333 0 4.69333 0 0 -8.74801 0 -8.74801 0 -0.41422 2.21317 -0.63867 4.49305 -0.63867 6.82666 0 20.50083 16.61923 37.12 37.12002 37.12 20.50082 0 37.12 -16.61917 37.12 -37.12 0 -2.33361 -0.22443 -4.61349 -0.63868 -6.82666 0 0 -8.74798 0 -8.74798 0 0 0 0 -4.69333 0 -4.69333 0 0 7.55484 0 7.55484 0 0 0 4.39181 0 4.39181 0 0 0 0.0695 0 0.0695 0 1.05854 3.65836 1.63715 7.52054 1.63715 11.51999 0 22.85724 -18.52942 41.38666 -41.38666 41.38666z"
        fill="#3b434f" />
    <path
        d="M233.39999 384.14609c0 0 0 26.31509 0 26.31509 0 13.65549 11.07947 24.7255 24.74668 24.7255 13.6672 0 24.74667 -11.07001 24.74667 -24.7255 0 0 0 -25.77219 0 -25.77219 1.43616 -0.43713 2.8588 -0.91192 4.26666 -1.42486 0 0 0 27.37616 0 27.37616 0 16.14862 -13.0852 29.23971 -29.22665 29.23971 -16.14145 0 -29.22669 -13.09109 -29.22669 -29.23971 0 0 0 -28.18662 0 -28.18662 1.54584 0.61124 3.11155 1.17344 4.69333 1.69242z"
        fill="#3b434f" />
    <path
        d="M259.00696 125.42664c54.02936 0 95.13043 47.38369 92.93121 101.60333 0 0 -2.9845 73.57962 -2.9845 73.57962 -8.45514 49.95502 -42.89511 86.02066 -89.56967 91.0571 -45.52936 -4.7847 -80.64492 -41.11493 -90.32379 -91.0571 0 0 -2.9845 -73.57962 -2.9845 -73.57962 -2.19922 -54.21964 38.90189 -101.60333 92.93125 -101.60333z"
        fill="#ffffff" />
    <path
        d="M357.90668 223.90909c0 0 -3.17639 76.88128 -3.17639 76.88128 -8.99878 52.19657 -45.65311 89.88056 -95.32868 95.14298 -48.45676 -4.99939 -85.83014 -42.95984 -96.13132 -95.14298 0 0 -3.17639 -76.88128 -3.17639 -76.88128 -2.3406 -56.65256 41.40317 -106.16245 98.90641 -106.16245 57.50326 0 101.24697 49.50989 98.90637 106.16245zM259.00696 123.71997c-54.02936 0 -95.13047 47.3837 -92.93125 101.60333 0 0 2.9845 73.57962 2.9845 73.57962 9.67887 49.94217 44.79443 86.2724 90.32379 91.0571 46.67456 -5.03644 81.11453 -41.10208 89.56967 -91.0571 0 0 2.9845 -73.57962 2.9845 -73.57962 2.19922 -54.21963 -38.90185 -101.60333 -92.93121 -101.60333z"
        fill="#3b434f" />
    <path
        d="M305.07999 327.32593c-7.75522 6.73382 -25.27198 13.14071 -45.65329 13.14071 -20.38135 0 -37.89811 -6.40689 -45.65335 -13.14071 0 0 -0.79346 -2.18329 0.37069 -3.34745 1.1857 -1.18569 3.04264 -0.92764 3.04264 -0.92764 7.7471 6.73841 21.85089 12.29584 42.24002 12.29584 20.3891 0 34.49289 -5.55743 42.23999 -12.29584 0 0 1.89502 -0.70395 2.81558 0.21662 1.77304 1.77304 0.59772 4.05847 0.59772 4.05847z"
        fill="#3b434f" />
    <path
        d="M245.34668 350.70666c0 0 27.30667 0 27.30667 0 0 0 0 4.26667 0 4.26667 0 0 -27.30667 0 -27.30667 0 0 0 0 -4.26667 0 -4.26667z"
        fill="#3b434f" />
    <path
        d="M160.80722 233.31314c-0.0118 0.00067 -1.04761 -0.82654 -3.0036 -1.44238 -0.9776 -0.30725 -2.1926 -0.56 -3.57745 -0.62232 -0.34586 -0.0156 -0.70182 -0.0192 -1.06604 -0.009 -0.36423 0.0103 -0.73676 0.0347 -1.11542 0.0751 -0.75723 0.0809 -1.53931 0.22628 -2.3263 0.45266 -3.15115 0.90558 -6.36572 3.10733 -8.25363 7.65177 -0.94769 2.27234 -1.57287 5.13061 -1.73816 8.70682 -0.0413 0.89407 -0.054 1.833 -0.0359 2.81887 0.0182 0.98587 0.0671 2.01868 0.14887 3.1005 0.16342 2.16354 0.45853 4.52316 0.89822 7.09439 -0.01 -0.003 -0.41009 7.76999 2.36859 16.70114 2.61225 8.73196 8.88508 19.4584 20.46689 22.52359 -1.33203 -22.17938 -1.37341 -44.77451 -2.76611 -67.05127 0 0 0 0 0 0z"
        fill="#ffffff" />
    <path
        d="M162.12787 234.20727c0 0 -20.17639 -6.25167 -19.46634 14.49082 0 0 3.00391 30.07727 4.30835 32.84927 0 0 7.92383 17.51203 21.00098 18.28812 12.781 0.75851 0 0 0 0 0 0 0.15872 5.64453 0.15872 5.64453 0 0 -22.98465 -2.94699 -27.42398 -29.4346 0 0 -3.50388 -24.06271 -3.50388 -24.06271 0 0 -2.72061 -31.84464 23.66946 -23.7479 25.70929 7.88788 0 0 0 0 0 0 1.25669 5.97247 1.25669 5.97247"
        fill="#3b434f" />
    <path
        d="M155.46832 275.99481c0 0 -1.12915 0.85333 -2.09915 0.85333 -0.97 0 -2.08539 -0.85333 -2.08539 -0.85333 0 0 -2.08221 -20.98279 -2.08221 -20.98279 0 0 2.87292 -10.33346 15.06381 -4.87252 0 0 0.28818 5.99972 0.28818 5.99972 0 0 -10.69565 -3.79321 -10.47449 0.93021 0.21289 4.54654 1.38925 18.92538 1.38925 18.92538z"
        fill="#3b434f" />
    <path
        d="M357.81342 233.36212c0.0118 0.00067 1.05221 -0.82596 3.01675 -1.44141 0.9819 -0.30703 2.20221 -0.5596 3.59314 -0.62188 0.34735 -0.0155 0.70486 -0.0192 1.07071 -0.009 0.36581 0.0103 0.73996 0.0347 1.1203 0.0751 0.76053 0.0808 1.54605 0.22614 2.33649 0.45236 3.16494 0.90497 6.39358 3.10523 8.28976 7.64658 0.95184 2.27078 1.57977 5.1271 1.74576 8.7009 0.0415 0.89346 0.0542 1.83175 0.036 2.81695 -0.0183 0.9852 -0.0674 2.0173 -0.14954 3.09839 -0.16412 2.16208 -0.46054 4.52011 -0.90216 7.08957 0.01 -0.003 0.4119 7.76474 -2.37897 16.68982 -2.62365 8.72604 -8.92397 19.44519 -20.55651 22.5083 1.33786 -22.16434 1.37942 -44.74411 2.77823 -67.00577 0 0 0 0 0 0z"
        fill="#ffffff" />
    <path
        d="M355.4826 234.25568c0 0 20.26477 -6.24744 19.55161 14.48095 0 0 -3.01706 30.05686 -4.32724 32.82697 0 0 -7.95853 17.50015 -21.09293 18.27572 -12.837 0.758 0 0 0 0 0 0 -0.15942 5.64069 -0.15942 5.64069 0 0 23.0853 -2.94498 27.54407 -29.41461 0 0 3.51922 -24.04639 3.51922 -24.04639 0 0 2.73255 -31.82303 -23.77313 -23.73178 -25.82187 7.88254 0 0 0 0 0 0 -1.26218 5.96845 -1.26218 5.96845"
        fill="#3b434f" />
    <path
        d="M362.17133 276.01483c0 0 1.13409 0.85275 2.10833 0.85275 0.97425 0 2.09452 -0.85275 2.09452 -0.85275 0 0 2.09133 -20.96854 2.09133 -20.96854 0 0 -2.88549 -10.32644 -15.12979 -4.86923 0 0 -0.28943 5.99567 -0.28943 5.99567 0 0 10.7425 -3.79065 10.52036 0.92957 -0.21381 4.54345 -1.39532 18.91253 -1.39532 18.91253z"
        fill="#3b434f" />
    <path
        d="M266.89334 274.33334c0.49771 0 0.99561 0 1.49332 0 3.08746 4.19297 4.34357 10.63642 5.97332 16.21332 0.50507 1.7283 0.0151 4.75131 -0.42666 5.97333 -1.61777 4.47552 -6.69763 4.3952 -10.87998 6.39999 -1.12323 0.53845 -1.95874 1.46784 -3.41333 1.7067 -0.9483 -0.83533 -2.09329 -0.99939 -2.56002 -2.34668 -1.15232 -1.58673 0.33282 -2.57761 1.49334 -3.20001 2.10624 -1.12958 8.60816 -2.24289 9.38666 -4.26667 0.96323 -1.09573 0.32275 -4.39016 0 -5.54666 -0.8266 -2.96216 -1.22336 -5.43512 -2.34665 -8.10666 -0.74615 -1.7745 -2.05618 -3.6455 -1.28 -5.76001 0.64319 -0.27618 2.0333 -0.59021 2.56 -1.06665z"
        fill="#3b434f" />
    <path
        d="M207.79999 241.48001c0 0 5.97336 0 5.97336 0 3.29898 0 5.97332 2.67435 5.97332 5.97333 0 3.29898 -2.67434 5.97333 -5.97332 5.97333 0 0 -5.97336 0 -5.97336 0 -3.29898 0 -5.97333 -2.67435 -5.97333 -5.97333 0 -3.29898 2.67435 -5.97333 5.97333 -5.97333z"
        fill="#3b434f" />
    <path
        d="M305.07999 241.48001c0 0 5.97335 0 5.97335 0 3.29898 0 5.97333 2.67435 5.97333 5.97333 0 3.29898 -2.67435 5.97333 -5.97333 5.97333 0 0 -5.97335 0 -5.97335 0 -3.29898 0 -5.97333 -2.67435 -5.97333 -5.97333 0 -3.29898 2.67435 -5.97333 5.97333 -5.97333z"
        fill="#3b434f" />
    <path
        d="M310.62668 269.64001c5.89102 0 10.66666 4.77564 10.66666 10.66666 0 5.89102 -4.77564 10.66666 -10.66666 10.66666 -5.89105 0 -10.66666 -4.77564 -10.66666 -10.66666 0 -5.89102 4.77561 -10.66666 10.66666 -10.66666z"
        fill="#edf1f1" />
    <path
        d="M207.37335 269.64001c5.89102 0 10.66666 4.77564 10.66666 10.66666 0 5.89102 -4.77564 10.66666 -10.66666 10.66666 -5.89105 0 -10.66665 -4.77564 -10.66665 -10.66666 0 -5.89102 4.7756 -10.66666 10.66665 -10.66666z"
        fill="#edf1f1" />
    <path
        d="M351.93991 228.87961c-0.57718 4.9299 -1.08426 10.96264 -2.15024 16.35626 -3.18759 16.12851 -17.04629 31.07147 -40.71008 32.77408 -23.66376 1.7026 -43.8038 -10.21036 -44.98404 -26.60837 -0.2001 -2.7803 -0.73541 -5.90033 -1.14621 -8.93368 -3.34885 -1.8566 -6.80045 -1.86084 -10.35477 -0.0126 -0.4151 3.10202 -0.97058 6.30411 -1.17544 9.15091 -1.18393 16.45236 -21.38748 28.40482 -45.12589 26.69656 -23.7384 -1.70825 -37.64081 -16.70071 -40.83847 -32.88269 -1.06933 -5.4115 -1.578 -11.46423 -2.15701 -16.41049 0 0 -3.48831 -0.25104 -3.48831 -0.25104 0 0 0.48999 -6.80905 0.48999 -6.80905 0 0 0.85113 0.0613 0.85113 0.0613 0 0 21.58853 1.55356 21.58853 1.55356 0 0 18.22309 1.31137 18.22309 1.31137 0 0 18.25696 1.31378 18.25696 1.31378 0 0 28.43667 2.04636 28.43667 2.04636 1.96118 0.24805 3.26526 1.08914 4.10507 2.34476 4.0839 1.78768 8.05012 1.79483 11.89862 0.0211 0.83222 -1.33639 2.15384 -2.23611 4.1875 -2.49328 0 0 28.34729 -2.03958 28.34729 -2.03958 0 0 18.19959 -1.30945 18.19959 -1.30945 0 0 18.1658 -1.30704 18.1658 -1.30704 0 0 21.52066 -1.54843 21.52066 -1.54843 0 0 0.84845 -0.061 0.84845 -0.061 0 0 0.48847 6.78656 0.48847 6.78656 0 0 -3.47736 0.25022 -3.47736 0.25022zm-111.92004 7.35766c0 0 -55.73157 -4.01052 -55.73157 -4.01052 -7.28925 -0.62842 -9.87296 7.56277 -10.32221 13.80578 -0.94714 13.16187 13.71817 24.94229 32.75589 26.31229 19.03772 1.36996 35.23868 -8.18924 36.18583 -21.35114 0.44925 -6.24298 2.4884 -10.09857 -2.88794 -14.75641zm101.28524 9.60907c-0.44784 -6.22238 -3.02343 -14.38653 -10.28976 -13.76019 0 0 -55.55637 3.99728 -55.55637 3.99728 -5.35943 4.64249 -3.32669 8.4853 -2.87887 14.70768 0.94418 13.1184 17.09421 22.64605 36.07208 21.28058 18.97788 -1.36545 33.59711 -13.10697 32.65292 -26.22535z"
        fill="#3b444f" />
    <path
        d="M167.69333 167.23999c0 0 31.14667 -39.67999 31.14667 -39.67999 0 0 28.16 -13.22666 28.16 -13.22666 0 0 37.97333 -5.97336 37.97333 -5.97336 0 0 43.52002 2.56 43.52002 2.56 0 0 58.45331 60.58667 58.45331 60.58667 0 0 -15.78666 57.17334 -15.78666 57.17334 0 0 -3.61834 -25.21499 -23.04 -45.22665 -18.11637 -18.66672 -29.86667 -23.25333 -29.86667 -23.25333 0 0 -6.85126 27.64676 -52.47998 26.66666 -81.84333 -1.75803 -78.2082 56.3641 -81.06669 61.44 -0.31414 0.55786 -0.42666 -24.32001 -0.42666 -24.32001 0 0 3.41333 -56.74667 3.41333 -56.74667z"
        fill="#3b434f" />
</svg>