<svg xmlns="http://www.w3.org/2000/svg"
    width="512"
    height="512"
    viewBox="0 0 512 512">
    <path
        d="M127.08624 438.50531c0 0 18.1232 -126.72818 11.50788 -186.14301 -6.65671 -59.78622 12.09225 -159.29565 130.14801 -159.29565 104.11734 0 115.74582 113.91299 113.26754 134.95013 -2.75879 23.41806 -23.62219 171.14249 0.39701 222.79142 23.75479 51.08044 -76.83682 30.48514 -76.83682 30.48514 0 0 -134.99262 -2.75049 -134.99262 -2.75049 0 0 -43.491 -40.03754 -43.491 -40.03754z"
        fill="#3b434f" />
    <path
        d="M114.35998 502c0 0 -6.61498 -89.98822 78.08002 -98.38666 0 0 37.97333 0 37.97333 0 0 0 0 -17.49334 0 -17.49334 0 0 26.71167 11.47332 53.76001 1.27999 0 0 0.85333 16.21335 0.85333 16.21335 0 0 44.37332 0 44.37332 0 0 0 75.98542 2.98425 72.53333 99.23999 0 0 -287.57334 -0.85333 -287.57334 -0.85333z"
        fill="#ffffff" />
    <path
        d="M114 504c0 0 -10.30188 -90.31113 78.44 -100.38666 0 0 37.97333 0 37.97333 0 0 0 0 -17.49334 0 -17.49334 0 0 26.71167 11.47332 53.76001 1.27999 0 0 0.85333 16.21335 0.85333 16.21335 0 0 44.37332 0 44.37332 0 0 0 77.27347 7.71427 72.60001 100.38666 0 0 -288 0 -288 0z"
        fill="#ffffff" />
    <path
        d="M401.26193 505.58667c0 0 0 0 0 0 0 0 -284.51639 0 -284.51639 0 0 0 0 0 0 0 0 0 -5.51788 0 -5.51788 0 0 0 1.37735 -23.52982 1.37735 -23.52982 2.6893 -45.94223 38.88687 -81.00351 80.31 -81.00351 0 0 31.52499 0 31.52499 0 0 0 0 4.69333 0 4.69333 0 0 -29.01028 0 -29.01028 0 -39.92337 0 -74.8104 33.74842 -77.40235 77.97034 0 0 -0.95672 16.323 -0.95672 16.323 0 0 283.43951 0 283.43951 0 0 0 -0.53006 -16.323 -0.53006 -16.323 -2.59195 -44.22192 -37.47897 -77.97034 -77.40237 -77.97034 0 0 -38.83106 0 -38.83106 0 0 0 0 -4.69333 0 -4.69333 0 0 41.09275 0 41.09275 0 41.42312 0 77.62069 35.06128 80.30999 81.00351 0 0 1.37735 23.52982 1.37735 23.52982 0 0 -5.26483 0 -5.26483 0z"
        fill="#3b434f" />
    <path
        d="M234.67999 384.14609c0 0 0 26.31509 0 26.31509 0 13.65549 11.07947 24.7255 24.74668 24.7255 13.6672 0 24.74667 -11.07001 24.74667 -24.7255 0 0 0 -25.77219 0 -25.77219 1.43616 -0.43713 2.85879 -0.91192 4.26666 -1.42486 0 0 0 27.37616 0 27.37616 0 16.14862 -13.0852 29.23971 -29.22665 29.23971 -16.14145 0 -29.22669 -13.09109 -29.22669 -29.23971 0 0 0 -28.18662 0 -28.18662 1.54584 0.61124 3.11155 1.17344 4.69333 1.69242z"
        fill="#3b434f" />
    <path
        d="M229.77335 434.76001c1.53164 0 2.77331 1.24164 2.77331 2.77331 0 0 0 41.81333 0 41.81333 0 1.53168 -1.24167 2.77335 -2.77331 2.77335 -1.53168 0 -2.77335 -1.24167 -2.77335 -2.77335 0 0 0 -41.81333 0 -41.81333 0 -1.53167 1.24167 -2.77331 2.77335 -2.77331z"
        fill="#3b434f" />
    <path
        d="M288.01334 434.33334c1.64947 0 2.98666 1.33716 2.98666 2.98667 0 0 0 26.02664 0 26.02664 0 1.6495 -1.33719 2.98669 -2.98666 2.98669 -1.64951 0 -2.98667 -1.33719 -2.98667 -2.98669 0 0 0 -26.02664 0 -26.02664 0 -1.64951 1.33716 -2.98667 2.98667 -2.98667z"
        fill="#3b434f" />
    <path
        d="M229.77335 479.13333c0.82473 0 1.49331 0.66858 1.49331 1.49335 0 0 0 10.66666 0 10.66666 0 0.82473 -0.66858 1.49331 -1.49331 1.49331 -0.82477 0 -1.49335 -0.66858 -1.49335 -1.49331 0 0 0 -10.66666 0 -10.66666 0 -0.82477 0.66858 -1.49335 1.49335 -1.49335z"
        fill="#3b434f" />
    <path
        d="M288.22665 463.34665c0.82477 0 1.49335 0.66861 1.49335 1.49335 0 0 0 10.66665 0 10.66665 0 0.82477 -0.66858 1.49335 -1.49335 1.49335 -0.82473 0 -1.49331 -0.66858 -1.49331 -1.49335 0 0 0 -10.66665 0 -10.66665 0 -0.82474 0.66858 -1.49335 1.49331 -1.49335z"
        fill="#3b434f" />
    <path
        d="M213.7655 373.64615c0 0 -27.02365 6.20523 -27.02365 6.20523 0 0 -33.09302 7.49603 -11.0762 29.79956 22.01684 22.30353 78.64102 26.2424 78.64102 26.2424 0 0 -14.97137 -7.09125 -21.33334 -17.06668 0 0 -2.13333 -35.84 -2.13333 -35.84 0 0 -17.0745 -9.34051 -17.0745 -9.34051z"
        fill="#f5f3ef" />
    <path
        d="M255.16 438.02667c-1.67675 2.12226 -48.82663 0.66303 -81.49334 -27.73333 -23.65262 -20.56067 11.94668 -32.42667 11.94668 -32.42667 0 0 26.02667 -5.97333 26.02667 -5.97333 0 0 22.61332 11.51999 22.61332 11.51999 0 0 1.70666 34.56 1.70666 34.56 9.51947 14.92636 21.89935 16.63678 19.20001 20.05334zm-23.46667 -18.34668c0 0 -2.56 -36.26666 -2.56 -36.26666 0 0 -13.65332 -7.67999 -13.65332 -7.67999 0 0 -26.02667 6.39999 -26.02667 6.39999 0 0 -31.52493 6.46454 -11.52002 25.17334 21.58932 20.19046 61.52826 25.60892 65.70669 25.17334 4.33075 -0.45151 -2.42721 2.12637 -11.94668 -12.80002z"
        fill="#3b434f" />
    <path
        d="M305.05926 374.6514c0 0 27.03968 6.22381 27.03968 6.22381 0 0 33.11261 7.51847 11.08276 29.8888 -22.02991 22.37033 -78.68765 26.32098 -78.68765 26.32098 0 0 14.98028 -7.11246 21.34598 -17.11777 0 0 2.13461 -35.94732 2.13461 -35.94732 0 0 17.08462 -9.3685 17.08462 -9.3685z"
        fill="#f5f3ef" />
    <path
        d="M263.64023 438.79804c1.67773 2.12863 48.85556 0.66503 81.54162 -27.81638 23.66666 -20.62225 -11.95373 -32.52377 -11.95373 -32.52377 0 0 -26.04211 -5.99122 -26.04211 -5.99122 0 0 -22.62671 11.55448 -22.62671 11.55448 0 0 -1.70771 34.66351 -1.70771 34.66351 -9.52508 14.97107 -21.91229 16.68659 -19.21136 20.11338zm23.48056 -18.40162c0 0 2.56152 -36.37527 2.56152 -36.37527 0 0 13.66144 -7.70297 13.66144 -7.70297 0 0 26.04208 6.41915 26.04208 6.41915 0 0 31.54364 6.48389 11.52683 25.24872 -21.60211 20.25095 -61.56473 25.68561 -65.74561 25.24872 -4.33334 -0.45285 2.42865 2.13272 11.95374 -12.83835z"
        fill="#3b434f" />
    <path
        d="M259.21466 116.46664c53.07788 0 94.97229 49.60123 93.61008 109.19831 0 0 -1.44782 63.34115 -1.44782 63.34115 -1.28332 56.14637 -42.53149 100.52722 -92.16226 100.52722 -49.63077 0 -90.87894 -44.38085 -92.16226 -100.52722 0 0 -1.44782 -63.34115 -1.44782 -63.34115 -1.36218 -59.59708 40.5322 -109.19831 93.61008 -109.19831z"
        fill="#ffffff" />
    <path
        d="M357.08939 223.70114c0 0 -1.51706 65.91437 -1.51706 65.91437 -1.3447 58.42731 -44.56604 104.61114 -96.57093 104.61114 -52.00491 0 -95.22622 -46.18383 -96.57095 -104.61114 0 0 -1.51709 -65.91437 -1.51709 -65.91437 -1.42734 -62.01822 42.47113 -113.63449 98.08804 -113.63449 55.61692 0 99.51535 51.61627 98.08799 113.63449zM258.7883 116.89331c-52.35227 0 -93.67392 49.21371 -92.33038 108.34518 0 0 1.42804 62.84632 1.42804 62.84632 1.26577 55.7077 41.95007 99.74185 90.90234 99.74185 48.95227 0 89.63653 -44.03415 90.90231 -99.74185 0 0 1.42801 -62.84632 1.42801 -62.84632 1.3436 -59.13147 -39.97806 -108.34518 -92.33032 -108.34518z"
        fill="#3b434f" />
    <path
        d="M305.07999 327.32593c-7.75522 6.73382 -25.27198 13.14071 -45.65329 13.14071 -20.38135 0 -37.89811 -6.40689 -45.65335 -13.14071 0 0 -0.79346 -2.18329 0.37069 -3.34745 1.1857 -1.18569 3.04264 -0.92764 3.04264 -0.92764 7.7471 6.73841 21.85089 12.29584 42.24002 12.29584 20.3891 0 34.49289 -5.55743 42.23999 -12.29584 0 0 1.89502 -0.70395 2.81558 0.21662 1.77304 1.77304 0.59772 4.05847 0.59772 4.05847z"
        fill="#3b434f" />
    <path
        d="M245.34668 350.70666c0 0 27.30667 0 27.30667 0 0 0 0 4.26667 0 4.26667 0 0 -27.30667 0 -27.30667 0 0 0 0 -4.26667 0 -4.26667z"
        fill="#3b434f" />
    <path
        d="M159.80722 233.31314c-0.0118 0.00067 -1.04761 -0.82654 -3.0036 -1.44238 -0.9776 -0.30725 -2.1926 -0.56 -3.57745 -0.62232 -0.34586 -0.0156 -0.70182 -0.0192 -1.06604 -0.009 -0.36423 0.0103 -0.73676 0.0347 -1.11542 0.0751 -0.75723 0.0809 -1.53931 0.22628 -2.3263 0.45266 -3.15115 0.90558 -6.36572 3.10733 -8.25363 7.65177 -0.94769 2.27234 -1.57287 5.13061 -1.73816 8.70682 -0.0413 0.89407 -0.054 1.833 -0.0359 2.81887 0.0182 0.98587 0.0671 2.01868 0.14887 3.1005 0.16342 2.16354 0.45853 4.52316 0.89822 7.09439 -0.01 -0.003 -0.41009 7.76999 2.36859 16.70114 2.61225 8.73196 8.88508 19.4584 20.46689 22.52359 -1.33203 -22.17938 -1.37341 -44.77451 -2.76611 -67.05127 0 0 0 0 0 0z"
        fill="#ffffff" />
    <path
        d="M162.12787 234.20727c0 0 -20.17639 -6.25167 -19.46634 14.49082 0 0 3.00391 30.07727 4.30835 32.84927 0 0 7.92383 17.51203 21.00098 18.28812 12.781 0.75851 0 0 0 0 0 0 0.15872 5.64453 0.15872 5.64453 0 0 -22.98465 -2.94699 -27.42398 -29.4346 0 0 -3.50388 -24.06271 -3.50388 -24.06271 0 0 -2.72061 -31.84464 23.66946 -23.7479 25.70929 7.88788 0 0 0 0 0 0 1.25669 5.97247 1.25669 5.97247"
        fill="#3b434f" />
    <path
        d="M155.46832 275.99481c0 0 -1.12915 0.85333 -2.09915 0.85333 -0.97 0 -2.08539 -0.85333 -2.08539 -0.85333 0 0 -2.08221 -20.98279 -2.08221 -20.98279 0 0 2.87292 -10.33346 15.06381 -4.87252 0 0 0.28818 5.99972 0.28818 5.99972 0 0 -10.69565 -3.79321 -10.47449 0.93021 0.21289 4.54654 1.38925 18.92538 1.38925 18.92538z"
        fill="#3b434f" />
    <path
        d="M356.81342 233.36212c0.0118 0.00067 1.05221 -0.82596 3.01675 -1.44141 0.9819 -0.30703 2.20221 -0.5596 3.59314 -0.62188 0.34735 -0.0155 0.70486 -0.0192 1.07071 -0.009 0.36581 0.0103 0.73996 0.0347 1.1203 0.0751 0.76053 0.0808 1.54605 0.22614 2.33649 0.45236 3.16494 0.90497 6.39358 3.10523 8.28976 7.64658 0.95184 2.27078 1.57977 5.1271 1.74576 8.7009 0.0415 0.89346 0.0542 1.83175 0.036 2.81695 -0.0183 0.9852 -0.0674 2.0173 -0.14954 3.09839 -0.16412 2.16208 -0.46054 4.52011 -0.90216 7.08957 0.01 -0.003 0.4119 7.76474 -2.37897 16.68982 -2.62365 8.72604 -8.92397 19.44519 -20.55651 22.5083 1.33786 -22.16434 1.37942 -44.74411 2.77823 -67.00577 0 0 0 0 0 0z"
        fill="#ffffff" />
    <path
        d="M355.4826 234.25568c0 0 20.26477 -6.24744 19.55161 14.48095 0 0 -3.01706 30.05686 -4.32724 32.82697 0 0 -7.95853 17.50015 -21.09293 18.27572 -12.837 0.758 0 0 0 0 0 0 -0.15942 5.64069 -0.15942 5.64069 0 0 23.0853 -2.94498 27.54407 -29.41461 0 0 3.51922 -24.04639 3.51922 -24.04639 0 0 2.73255 -31.82303 -23.77313 -23.73178 -25.82187 7.88254 0 0 0 0 0 0 -1.26218 5.96845 -1.26218 5.96845"
        fill="#3b434f" />
    <path
        d="M362.17133 276.01483c0 0 1.13409 0.85275 2.10833 0.85275 0.97425 0 2.09452 -0.85275 2.09452 -0.85275 0 0 2.09133 -20.96854 2.09133 -20.96854 0 0 -2.88549 -10.32644 -15.12979 -4.86923 0 0 -0.28943 5.99567 -0.28943 5.99567 0 0 10.7425 -3.79065 10.52036 0.92957 -0.21381 4.54345 -1.39532 18.91253 -1.39532 18.91253z"
        fill="#3b434f" />
    <path
        d="M266.89334 274.33334c0.49771 0 0.99561 0 1.49332 0 3.08746 4.19297 4.34357 10.63642 5.97332 16.21332 0.50507 1.7283 0.0151 4.75131 -0.42666 5.97333 -1.61777 4.47552 -6.69763 4.3952 -10.87998 6.39999 -1.12323 0.53845 -1.95874 1.46784 -3.41333 1.7067 -0.9483 -0.83533 -2.09329 -0.99939 -2.56002 -2.34668 -1.15232 -1.58673 0.33282 -2.57761 1.49334 -3.20001 2.10624 -1.12958 8.60816 -2.24289 9.38666 -4.26667 0.96323 -1.09573 0.32275 -4.39016 0 -5.54666 -0.8266 -2.96216 -1.22336 -5.43512 -2.34665 -8.10666 -0.74615 -1.7745 -2.05618 -3.6455 -1.28 -5.76001 0.64319 -0.27618 2.0333 -0.59021 2.56 -1.06665z"
        fill="#3b434f" />
    <path
        d="M212.06668 238.06668c4.71283 0 8.53333 3.8205 8.53333 8.53333 0 4.71283 -3.8205 8.53332 -8.53333 8.53332 -4.71283 0 -8.53336 -3.82049 -8.53336 -8.53332 0 -4.71283 3.82053 -8.53333 8.53336 -8.53333z"
        fill="#3b434f" />
    <path
        d="M306.78665 238.06668c4.71283 0 8.53333 3.8205 8.53333 8.53333 0 4.71283 -3.8205 8.53332 -8.53333 8.53332 -4.7128 0 -8.53332 -3.82049 -8.53332 -8.53332 0 -4.71283 3.82052 -8.53333 8.53332 -8.53333z"
        fill="#3b434f" />
    <path
        d="M211.64001 269.64001c8.24744 0 14.93332 0.47321 14.93332 9.81333 0 9.63391 -6.68588 9.81332 -14.93332 9.81332 -8.24746 0 -14.93331 -1.75451 -14.93331 -9.81332 0 -9.4137 6.68585 -9.81333 14.93331 -9.81333z"
        fill="#f5f3ef" />
    <path
        d="M310.62668 269.64001c8.24744 0 14.93332 0.47321 14.93332 9.81333 0 9.63391 -6.68588 9.81332 -14.93332 9.81332 -8.24747 0 -14.93332 -1.75451 -14.93332 -9.81332 0 -9.4137 6.68585 -9.81333 14.93332 -9.81333z"
        fill="#f5f3ef" />
    <path
        d="M282 222.61017c0 0 2.47144 3.13916 2.47144 3.13916 0 0 1.53338 1.94559 1.53338 1.94559 0 0 27.15033 -14.99204 45.99518 2.30508 0 0 2.00916 0.98492 2.00916 0.98492 0 0 -4.64246 -25.07632 -45.28147 -10.4085 -2.14413 0.5816 -4.38129 1.25283 -6.72769 2.03375z"
        fill="#3b434f" />
    <path
        d="M235 222.62762c0 0 -2.47144 3.13263 -2.47144 3.13263 0 0 -1.53338 1.94153 -1.53338 1.94153 0 0 -27.15033 -14.96084 -45.99518 2.30029 0 0 -2.00916 0.98289 -2.00916 0.98289 0 0 4.64246 -25.02421 45.28147 -10.38688 2.14413 0.58042 4.38128 1.25025 6.72769 2.02954z"
        fill="#3b434f" />
    <path
        d="M164.28 223.98666c0 0 0.11252 24.87787 0.42666 24.32001 2.85849 -5.0759 -0.77664 -63.19803 81.06669 -61.44 45.62872 0.9801 52.47998 -26.66666 52.47998 -26.66666 0 0 11.7503 4.58661 29.86667 23.25333 19.42166 20.01166 23.04 45.22665 23.04 45.22665 0 0 15.78666 -57.17334 15.78666 -57.17334 0 0 -58.45331 -60.58667 -58.45331 -60.58667 0 0 -43.52002 -2.56 -43.52002 -2.56 0 0 -37.97333 5.97336 -37.97333 5.97336 0 0 -28.16 13.22666 -28.16 13.22666 0 0 -31.14667 39.67999 -31.14667 39.67999"
        fill="#3b434f" />
</svg>