<svg xmlns="http://www.w3.org/2000/svg"
	width="512" 
    height="512" 
    viewBox="0 0 512 512">
    <path
        d="M112 502c0 0 -11.98895 -92.45706 80.42667 -100.81332 0 0 22.18667 0 22.18667 0 0 0 7.26166 -4.69333 12.37332 -4.69333 0 0 0 -13.22669 0 -13.22669 0 0 27.69333 13.80835 56.32001 0.42667 0 0 0 11.94668 0 11.94668 0 0 1.21668 -2.28668 13.65332 5.97333 0 0 33.28 0 33.28 0 0 0 70.76001 8.72852 70.76001 100.38666 0 0 -289 0 -289 0z"
        fill="#ffffff" />
    <path
        d="M398.26193 505.58667c0 0 -284.51639 0 -284.51639 0 0 0 -5.51788 0 -5.51788 0 0 0 1.37735 -23.52982 1.37735 -23.52982 2.6893 -45.94223 38.88687 -81.00351 80.31 -81.00351 0 0 28.48364 0 28.48364 0 -1.84784 1.52832 -3.202 3.11356 -4.17587 4.69333 0 0 -21.79306 0 -21.79306 0 -39.92337 0 -74.8104 33.74842 -77.40235 77.97034 0 0 -0.95672 16.323 -0.95672 16.323 0 0 283.43951 0 283.43951 0 0 0 -0.53006 -16.323 -0.53006 -16.323 -2.59195 -44.22192 -37.47897 -77.97034 -77.40237 -77.97034 0 0 -21.81162 0 -21.81162 0 -0.8341 -1.56814 -2.02017 -3.15326 -3.67608 -4.69333 0 0 27.74939 0 27.74939 0 41.42312 0 77.62069 35.06128 80.30999 81.00351 0 0 1.37735 23.52982 1.37735 23.52982 0 0 -5.26483 0 -5.26483 0zm-112.61151 -99.84c0 0 -1.49042 0 -1.49042 0 0 0 0 -4.69333 0 -4.69333 0 0 1.65601 0 1.65601 0 -0.099 1.21979 -0.16263 2.75724 -0.16559 4.69333zm-60.01114 -4.69333c0 0 1.77405 0 1.77405 0 0 0 0 4.69333 0 4.69333 0 0 -1.53326 0 -1.53326 0 -0.0229 -1.99313 -0.11426 -3.52261 -0.24079 -4.69333z"
        fill="#3b434f" />
    <path
        d="M269.22665 466.33334c1.64951 0 2.9867 1.33716 2.9867 2.98667 0 1.64947 -1.33719 2.98666 -2.9867 2.98666 -1.64947 0 -2.98666 -1.33719 -2.98666 -2.98666 0 -1.64951 1.33719 -2.98667 2.98666 -2.98667z"
        fill="#3b434f" />
    <path
        d="M269.22665 485.95999c1.64951 0 2.9867 1.33719 2.9867 2.98667 0 1.6495 -1.33719 2.98666 -2.9867 2.98666 -1.64947 0 -2.98666 -1.33716 -2.98666 -2.98666 0 -1.64948 1.33719 -2.98667 2.98666 -2.98667z"
        fill="#3b434f" />
    <path
        d="M303.78665 426.22668c0 0 -21.75998 32.42667 -21.75998 32.42667 -5.91943 -18.34729 -23.04001 -11.52002 -23.04001 -11.52002 0 0 0 54.18817 0 54.18817 0 1.41303 -1.33719 2.5585 -2.98666 2.5585 -1.64948 0 -2.98666 -1.14547 -2.98666 -2.5585 0 0 0 -54.18945 0 -54.18945 -0.13852 -0.0549 -17.12287 -6.75113 -23.01175 11.5213 0 0 -21.73636 -32.42667 -21.73636 -32.42667 0 0 -8.40808 -21.3767 17.04812 -30.72 0 -9.32263 0 -9.81335 0 -9.81335 0 0 4.8136 0 4.8136 0 0 0 0 17.82382 0 30.88373 0.61798 5.31628 4.27835 20.46423 25.87305 25.43628 21.61816 -4.97205 25.28253 -20.12 25.90118 -25.43628 0 -13.05991 0 -30.88373 0 -30.88373 0 0 4.81882 0 4.81882 0 0 0 0 0.49072 0 9.81335 25.48386 9.3433 17.06665 30.72 17.06665 30.72zm-74.03738 2.87052c-1.16025 -1.31394 -2.83139 -4.57721 -2.83139 -4.57721 0 0 -1.60453 -5.33997 -1.60453 -7.67999 0 -2.90635 0 -6.72135 0 -10.82227 -0.36288 -4.88095 -1.27859 -4.96439 -1.27859 -4.96439 -18.99378 9.35523 -10.65509 23.89332 -10.65509 23.89332 0 0 15.76953 24.74667 15.76953 24.74667 6.15811 -10.43448 12.7861 -8.53333 12.7861 -8.53333 -5.85196 -2.98257 -9.68988 -7.61151 -12.18603 -12.0628zM288 401.05334c0 0 -0.91672 0.0834 -1.28 4.96439 0 4.10092 0 7.91592 0 10.82227 0 2.34002 -1.60626 7.67999 -1.60626 7.67999 0 0 -1.67298 3.26327 -2.83447 4.57721 -2.49887 4.45129 -6.34098 9.08023 -12.19928 12.0628 0 0 6.63519 -1.90115 12.80001 8.53333 0 0 15.78666 -24.74667 15.78666 -24.74667 0 0 8.34774 -14.53809 -10.66666 -23.89332z"
        fill="#3b434f" />
    <path
        d="M256.21466 116.46664c53.07788 0 94.97229 49.60123 93.61008 109.19831 0 0 -1.44782 63.34115 -1.44782 63.34115 -1.28332 56.14637 -42.53149 100.52722 -92.16226 100.52722 -49.63077 0 -90.87894 -44.38085 -92.16226 -100.52722 0 0 -1.44782 -63.34115 -1.44782 -63.34115 -1.36218 -59.59708 40.5322 -109.19831 93.61008 -109.19831z"
        fill="#ffffff" />
    <path
        d="M354.08939 223.70114c0 0 -1.51706 65.91437 -1.51706 65.91437 -1.3447 58.42731 -44.56604 104.61114 -96.57093 104.61114 -52.00491 0 -95.22622 -46.18383 -96.57095 -104.61114 0 0 -1.51709 -65.91437 -1.51709 -65.91437 -1.42734 -62.01822 42.47113 -113.63449 98.08804 -113.63449 55.61692 0 99.51535 51.61627 98.08799 113.63449zM255.7883 116.89331c-52.35227 0 -93.67392 49.21371 -92.33038 108.34518 0 0 1.42804 62.84632 1.42804 62.84632 1.26577 55.7077 41.95007 99.74185 90.90234 99.74185 48.95227 0 89.63653 -44.03415 90.90231 -99.74185 0 0 1.42801 -62.84632 1.42801 -62.84632 1.3436 -59.13147 -39.97806 -108.34518 -92.33032 -108.34518z"
        fill="#3b434f" />
    <path
        d="M351.42667 234.65332c0 0 -4.26667 69.97336 -4.26667 69.97336 0 0 -18.95022 80.77093 -92.16 90.33468 0 0 0 0.11863 0 0.11863 -0.14389 -0.0176 -0.2832 -0.0412 -0.42667 -0.0593 -0.14346 0.0181 -0.28277 0.0417 -0.42666 0.0593 0 0 0 -0.11863 0 -0.11863 -73.20975 -9.56375 -92.16001 -90.33468 -92.16001 -90.33468 0 0 -4.26666 -69.97336 -4.26666 -69.97336 18.99777 84.32669 34.98666 89.60004 34.98666 89.60004 -3.23556 -25.57114 23.04001 -23.04001 23.04001 -23.04001 16.01413 2.70508 28.76248 4.01227 38.82666 4.50097 10.06421 -0.4887 22.81253 -1.79589 38.82666 -4.50097 0 0 26.27555 -2.53113 23.04001 23.04001 0 0 15.98889 -5.27335 34.98667 -89.60004zm-47.44358 98.27307c-1.24203 -15.04162 -10.31222 -13.76617 -10.31222 -13.76617 -16.12464 4.74463 -28.78214 7.38043 -38.67087 8.72003 0 0 0 -0.0983 0 -0.0983 -9.81949 -1.32867 -22.38834 -3.94284 -38.39999 -8.64859 0 0 -9.00669 -1.26501 -10.24003 13.65335 0 0 -3.61666 14.94666 8.53336 21.33332 0 0 15.35999 16.21334 15.35999 16.21334 0 0 10.49667 3.32666 10.24002 -9.38668 0 0 -1.06836 -9.48166 5.11999 -11.09333 0 0 9.38666 0 9.38666 0 0 0 0 0.28076 0 0.28076 0 0 9.45288 0 9.45288 0 6.23199 1.625 5.15613 11.18503 5.15613 11.18503 -0.25849 12.81842 10.31219 9.46424 10.31219 9.46424 0 0 15.46836 -16.34733 15.46836 -16.34733 12.23571 -6.43945 8.59353 -21.50964 8.59353 -21.50964z"
        fill="#3b434f"
        fill-opacity="0.05882401" />
    <path
        d="M302.07999 327.32593c-7.75522 6.73382 -25.27198 13.14071 -45.65329 13.14071 -20.38135 0 -37.89811 -6.40689 -45.65335 -13.14071 0 0 -0.79346 -2.18329 0.37069 -3.34745 1.1857 -1.18569 3.04264 -0.92764 3.04264 -0.92764 7.7471 6.73841 21.85089 12.29584 42.24002 12.29584 20.3891 0 34.49289 -5.55743 42.23999 -12.29584 0 0 1.89502 -0.70395 2.81558 0.21662 1.77304 1.77304 0.59772 4.05847 0.59772 4.05847z"
        fill="#3b434f" />
    <path
        d="M242.34668 350.70666c0 0 27.30667 0 27.30667 0 0 0 0 4.26667 0 4.26667 0 0 -27.30667 0 -27.30667 0 0 0 0 -4.26667 0 -4.26667z"
        fill="#3b434f" />
    <path
        d="M157.80722 233.31314c-0.0118 0.00067 -1.04761 -0.82654 -3.0036 -1.44238 -0.9776 -0.30725 -2.1926 -0.56 -3.57745 -0.62232 -0.34586 -0.0156 -0.70182 -0.0192 -1.06604 -0.009 -0.36423 0.0103 -0.73676 0.0347 -1.11542 0.0751 -0.75723 0.0809 -1.53931 0.22628 -2.3263 0.45266 -3.15115 0.90558 -6.36572 3.10733 -8.25363 7.65177 -0.94769 2.27234 -1.57287 5.13061 -1.73816 8.70682 -0.0413 0.89407 -0.054 1.833 -0.0359 2.81887 0.0182 0.98587 0.0671 2.01868 0.14887 3.1005 0.16342 2.16354 0.45853 4.52316 0.89822 7.09439 -0.01 -0.003 -0.41009 7.76999 2.36859 16.70114 2.61225 8.73196 8.88508 19.4584 20.46689 22.52359 -1.33203 -22.17938 -1.37341 -44.77451 -2.76611 -67.05127 0 0 0 0 0 0z"
        fill="#ffffff" />
    <path
        d="M159.12787 234.20727c0 0 -20.17639 -6.25167 -19.46634 14.49082 0 0 3.00391 30.07727 4.30835 32.84927 0 0 7.92383 17.51203 21.00098 18.28812 12.781 0.75851 0 0 0 0 0 0 0.15872 5.64453 0.15872 5.64453 0 0 -22.98465 -2.94699 -27.42398 -29.4346 0 0 -3.50388 -24.06271 -3.50388 -24.06271 0 0 -2.72061 -31.84464 23.66946 -23.7479 25.70929 7.88788 0 0 0 0 0 0 1.25669 5.97247 1.25669 5.97247"
        fill="#3b434f" />
    <path
        d="M152.46832 275.99481c0 0 -1.12915 0.85333 -2.09915 0.85333 -0.97 0 -2.08539 -0.85333 -2.08539 -0.85333 0 0 -2.08221 -20.98279 -2.08221 -20.98279 0 0 2.87292 -10.33346 15.06381 -4.87252 0 0 0.28818 5.99972 0.28818 5.99972 0 0 -10.69565 -3.79321 -10.47449 0.93021 0.21289 4.54654 1.38925 18.92538 1.38925 18.92538z"
        fill="#3b434f" />
    <path
        d="M354.81342 233.36212c0.0118 0.00067 1.05221 -0.82596 3.01675 -1.44141 0.9819 -0.30703 2.20221 -0.5596 3.59314 -0.62188 0.34735 -0.0155 0.70486 -0.0192 1.07071 -0.009 0.36581 0.0103 0.73996 0.0347 1.1203 0.0751 0.76053 0.0808 1.54605 0.22614 2.33649 0.45236 3.16494 0.90497 6.39358 3.10523 8.28976 7.64658 0.95184 2.27078 1.57977 5.1271 1.74576 8.7009 0.0415 0.89346 0.0542 1.83175 0.036 2.81695 -0.0183 0.9852 -0.0674 2.0173 -0.14954 3.09839 -0.16412 2.16208 -0.46054 4.52011 -0.90216 7.08957 0.01 -0.003 0.4119 7.76474 -2.37897 16.68982 -2.62365 8.72604 -8.92397 19.44519 -20.55651 22.5083 1.33786 -22.16434 1.37942 -44.74411 2.77823 -67.00577 0 0 0 0 0 0z"
        fill="#f7fbfb" />
    <path
        d="M352.4826 234.25568c0 0 20.26477 -6.24744 19.55161 14.48095 0 0 -3.01706 30.05686 -4.32724 32.82697 0 0 -7.95853 17.50015 -21.09293 18.27572 -12.837 0.758 0 0 0 0 0 0 -0.15942 5.64069 -0.15942 5.64069 0 0 23.0853 -2.94498 27.54407 -29.41461 0 0 3.51922 -24.04639 3.51922 -24.04639 0 0 2.73255 -31.82303 -23.77313 -23.73178 -25.82187 7.88254 0 0 0 0 0 0 -1.26218 5.96845 -1.26218 5.96845"
        fill="#3b434f" />
    <path
        d="M359.17133 276.01483c0 0 1.13409 0.85275 2.10833 0.85275 0.97425 0 2.09452 -0.85275 2.09452 -0.85275 0 0 2.09133 -20.96854 2.09133 -20.96854 0 0 -2.88549 -10.32644 -15.12979 -4.86923 0 0 -0.28943 5.99567 -0.28943 5.99567 0 0 10.7425 -3.79065 10.52036 0.92957 -0.21381 4.54345 -1.39532 18.91253 -1.39532 18.91253z"
        fill="#3b434f" />
    <path
        d="M353.34253 233.3494c0.0118 0.0007 1.04877 -0.83036 3.00696 -1.44904 0.9787 -0.30869 2.19504 -0.56259 3.58145 -0.62521 0.34622 -0.0157 0.70257 -0.0194 1.06723 -0.009 0.36462 0.0104 0.73755 0.0349 1.11664 0.0755 0.75808 0.0813 1.54101 0.22733 2.32892 0.45478 3.15466 0.90976 6.37283 3.1217 8.26281 7.68719 0.94879 2.28287 1.57465 5.15436 1.74012 8.74713 0.0414 0.8982 0.054 1.84146 0.0359 2.83191 -0.0181 0.99045 -0.0672 2.02805 -0.14901 3.11484 -0.16361 2.17359 -0.45902 4.5441 -0.8992 7.12723 0.01 -0.003 0.41052 7.806 -2.37125 16.77847 -2.61517 8.7724 -8.89499 19.54849 -20.48975 22.6279 1.3335 -22.2821 1.37494 -44.98181 2.7692 -67.36172 0 0 0 0 0 0z"
        fill="#ffffff" />
    <path
        d="M352.92267 234.25565c0 0 20.26474 -6.24741 19.5516 14.48101 0 0 -3.01709 30.0568 -4.32721 32.82697 0 0 -7.95852 17.50009 -21.09298 18.27566 -12.83698 0.75806 0 0 0 0 0 0 -0.1594 5.64072 -0.1594 5.64072 0 0 23.08533 -2.94498 27.5441 -29.41464 0 0 3.51923 -24.04636 3.51923 -24.04636 0 0 2.73251 -31.823 -23.77317 -23.73178 -25.82186 7.88251 0 0 0 0 0 0 -1.26217 5.96842 -1.26217 5.96842"
        fill="#3b434f" />
    <path
        d="M359.61139 276.01483c0 0 4.20285 0 4.20285 0 0 0 2.09131 -20.96857 2.09131 -20.96857 0 0 -2.88547 -10.32644 -15.12976 -4.8692 0 0 -0.28943 5.99567 -0.28943 5.99567 0 0 10.74249 -3.79065 10.52035 0.92959 -0.2138 4.54343 -1.39532 18.91251 -1.39532 18.91251z"
        fill="#3b434f" />
    <path
        d="M263.89334 274.33334c0.49771 0 0.99561 0 1.49332 0 3.08746 4.19297 4.34357 10.63642 5.97332 16.21332 0.50507 1.7283 0.0151 4.75131 -0.42666 5.97333 -1.61777 4.47552 -6.69763 4.3952 -10.87998 6.39999 -1.12323 0.53845 -1.95874 1.46784 -3.41333 1.7067 -0.9483 -0.83533 -2.09329 -0.99939 -2.56002 -2.34668 -1.15232 -1.58673 0.33282 -2.57761 1.49334 -3.20001 2.10624 -1.12958 8.60816 -2.24289 9.38666 -4.26667 0.96323 -1.09573 0.32275 -4.39016 0 -5.54666 -0.8266 -2.96216 -1.22336 -5.43512 -2.34665 -8.10666 -0.74615 -1.7745 -2.05618 -3.6455 -1.28 -5.76001 0.64319 -0.27618 2.0333 -0.59021 2.56 -1.06665z"
        fill="#3b434f" />
    <path
        d="M204.79999 241.48001c0 0 5.97336 0 5.97336 0 3.29898 0 5.97332 2.67435 5.97332 5.97333 0 3.29898 -2.67434 5.97333 -5.97332 5.97333 0 0 -5.97336 0 -5.97336 0 -3.29898 0 -5.97333 -2.67435 -5.97333 -5.97333 0 -3.29898 2.67435 -5.97333 5.97333 -5.97333z"
        fill="#3b434f" />
    <path
        d="M302.07999 241.48001c0 0 5.97335 0 5.97335 0 3.29898 0 5.97333 2.67435 5.97333 5.97333 0 3.29898 -2.67435 5.97333 -5.97333 5.97333 0 0 -5.97335 0 -5.97335 0 -3.29898 0 -5.97333 -2.67435 -5.97333 -5.97333 0 -3.29898 2.67435 -5.97333 5.97333 -5.97333z"
        fill="#3b434f" />
    <path
        d="M180.90668 226.11999c0 0 57.17331 0 57.17331 0 3.29898 0 5.97335 2.67435 5.97335 5.97333 0 0 0 36.69333 0 36.69333 0 3.29898 -2.67437 5.97336 -5.97335 5.97336 0 0 -57.17331 0 -57.17331 0 -3.29898 0 -5.97336 -2.67438 -5.97336 -5.97336 0 0 0 -36.69333 0 -36.69333 0 -3.29898 2.67438 -5.97333 5.97336 -5.97333z"
        fill="#3b434f"
        fill-opacity="0.14902" />
    <path
        d="M273.06668 226.11999c0 0 57.17331 0 57.17331 0 3.29898 0 5.97336 2.67435 5.97336 5.97333 0 0 0 36.69333 0 36.69333 0 3.29898 -2.67438 5.97336 -5.97336 5.97336 0 0 -57.17331 0 -57.17331 0 -3.29898 0 -5.97336 -2.67438 -5.97336 -5.97336 0 0 0 -36.69333 0 -36.69333 0 -3.29898 2.67438 -5.97333 5.97336 -5.97333z"
        fill="#3b434f"
        fill-opacity="0.14902" />
    <path
        d="M341.33334 230.38666c0 0 0 31.57333 0 31.57333 0 7.71573 -7.52643 19.75546 -19.79049 20.44495 -1.80161 -0.0859 -38.23618 0.0351 -38.23618 0.0351 -16.37833 0 -19.62668 -19.62668 -19.62668 -19.62668 0 0 0 -21.33331 0 -21.33331 0 0 -15.35998 0 -15.35998 0 0 0 0 21.33331 0 21.33331 0 0 -3.24836 19.62668 -19.62668 19.62668 0 0 -36.43457 -0.12097 -38.23618 -0.0351 -12.26407 -0.68949 -19.79049 -12.72922 -19.79049 -20.44495 0 0 0 -31.57333 0 -31.57333 0 0 -13.65332 0 -13.65332 0 0 0 0 -8.53333 0 -8.53333 0 0 79.35998 0 79.35998 0 0 0 11.94669 1.92999 11.94669 10.23999 0 0 15.35998 0 15.35998 0 0 -8.31 11.94669 -10.23999 11.94669 -10.23999 0 0 79.35998 0 79.35998 0 0 0 0 8.53333 0 8.53333 0 0 -13.65332 0 -13.65332 0zm-101.54669 4.26666c0 -3.04166 -3.41333 -3.41333 -3.41333 -3.41333 0 0 -57.17331 0 -57.17331 0 0 0 0 29.86667 0 29.86667 0 9.30585 12.79999 12.80002 12.79999 12.80002 0 0 34.98666 0 34.98666 0 12.03751 0 12.79999 -12.80002 12.79999 -12.80002 0 0 0 -23.41165 0 -26.45334zm93.01334 -3.41333c0 0 -57.17331 0 -57.17331 0 0 0 -3.41333 0.37167 -3.41333 3.41333 0 3.04169 0 26.45334 0 26.45334 0 0 0.76248 12.80002 12.79999 12.80002 0 0 34.98666 0 34.98666 0 0 0 12.79999 -3.49417 12.79999 -12.80002 0 0 0 -29.86667 0 -29.86667zM320.85333 282.44c0.23264 -0.005 0.46015 -0.0222 0.68952 -0.0351 0.19287 0.009 -0.00089 0.0207 -0.68952 0.0351zm-130.39618 -0.0351c0.22937 0.0129 0.45688 0.0302 0.68952 0.0351 -0.68863 -0.0143 -0.88239 -0.0258 -0.68952 -0.0351z"
        fill="#3b434f" />
</svg>