<svg xmlns="http://www.w3.org/2000/svg"
    width="512"
    height="512"
    viewBox="0 0 512 512">
    <path
        d="M112 504c0 0 -10.30188 -90.31113 78.44 -100.38666 0 0 37.97333 0 37.97333 0 0 0 0 -17.49334 0 -17.49334 0 0 26.71167 11.47332 53.76001 1.27999 0 0 0.85333 16.21335 0.85333 16.21335 0 0 44.37332 0 44.37332 0 0 0 77.27347 7.71427 72.60001 100.38666 0 0 -288 0 -288 0z"
        fill="#ffffff" />
    <path
        d="M399.26193 505.58667c0 0 0 0 0 0 0 0 -284.51639 0 -284.51639 0 0 0 0 0 0 0 0 0 -5.51788 0 -5.51788 0 0 0 1.37735 -23.52982 1.37735 -23.52982 2.6893 -45.94223 38.88687 -81.00351 80.31 -81.00351 0 0 31.52499 0 31.52499 0 0 0 0 4.69333 0 4.69333 0 0 -29.01028 0 -29.01028 0 -39.92337 0 -74.8104 33.74842 -77.40235 77.97034 0 0 -0.95672 16.323 -0.95672 16.323 0 0 283.43951 0 283.43951 0 0 0 -0.53006 -16.323 -0.53006 -16.323 -2.59195 -44.22192 -37.47897 -77.97034 -77.40237 -77.97034 0 0 -38.83106 0 -38.83106 0 0 0 0 -4.69333 0 -4.69333 0 0 41.09275 0 41.09275 0 41.42312 0 77.62069 35.06128 80.30999 81.00351 0 0 1.37735 23.52982 1.37735 23.52982 0 0 -5.26483 0 -5.26483 0z"
        fill="#3b434f" />
    <path
        d="M232.67999 384.14609c0 0 0 26.31509 0 26.31509 0 13.65549 11.07947 24.7255 24.74668 24.7255 13.6672 0 24.74667 -11.07001 24.74667 -24.7255 0 0 0 -25.77219 0 -25.77219 1.43616 -0.43713 2.85879 -0.91192 4.26666 -1.42486 0 0 0 27.37616 0 27.37616 0 16.14862 -13.0852 29.23971 -29.22665 29.23971 -16.14145 0 -29.22669 -13.09109 -29.22669 -29.23971 0 0 0 -28.18662 0 -28.18662 1.54584 0.61124 3.11155 1.17344 4.69333 1.69242z"
        fill="#3b434f" />
    <path
        d="M227.77335 434.76001c1.53164 0 2.77331 1.24164 2.77331 2.77331 0 0 0 41.81333 0 41.81333 0 1.53168 -1.24167 2.77335 -2.77331 2.77335 -1.53168 0 -2.77335 -1.24167 -2.77335 -2.77335 0 0 0 -41.81333 0 -41.81333 0 -1.53167 1.24167 -2.77331 2.77335 -2.77331z"
        fill="#3b434f" />
    <path
        d="M286.01334 434.33334c1.64947 0 2.98666 1.33716 2.98666 2.98667 0 0 0 26.02664 0 26.02664 0 1.6495 -1.33719 2.98669 -2.98666 2.98669 -1.64951 0 -2.98667 -1.33719 -2.98667 -2.98669 0 0 0 -26.02664 0 -26.02664 0 -1.64951 1.33716 -2.98667 2.98667 -2.98667z"
        fill="#3b434f" />
    <path
        d="M227.77335 479.13333c0.82473 0 1.49331 0.66858 1.49331 1.49335 0 0 0 10.66666 0 10.66666 0 0.82473 -0.66858 1.49331 -1.49331 1.49331 -0.82477 0 -1.49335 -0.66858 -1.49335 -1.49331 0 0 0 -10.66666 0 -10.66666 0 -0.82477 0.66858 -1.49335 1.49335 -1.49335z"
        fill="#3b434f" />
    <path
        d="M286.22665 463.34665c0.82477 0 1.49335 0.66861 1.49335 1.49335 0 0 0 10.66665 0 10.66665 0 0.82477 -0.66858 1.49335 -1.49335 1.49335 -0.82473 0 -1.49331 -0.66858 -1.49331 -1.49335 0 0 0 -10.66665 0 -10.66665 0 -0.82474 0.66858 -1.49335 1.49331 -1.49335z"
        fill="#3b434f" />
    <path
        d="M211.7655 373.64615c0 0 -27.02365 6.20523 -27.02365 6.20523 0 0 -33.09302 7.49603 -11.0762 29.79956 22.01684 22.30353 78.64102 26.2424 78.64102 26.2424 0 0 -14.97137 -7.09125 -21.33334 -17.06668 0 0 -2.13333 -35.84 -2.13333 -35.84 0 0 -17.0745 -9.34051 -17.0745 -9.34051z"
        fill="#f5f3ef" />
    <path
        d="M253.16 438.02667c-1.67675 2.12226 -48.82663 0.66303 -81.49334 -27.73333 -23.65262 -20.56067 11.94668 -32.42667 11.94668 -32.42667 0 0 26.02667 -5.97333 26.02667 -5.97333 0 0 22.61332 11.51999 22.61332 11.51999 0 0 1.70666 34.56 1.70666 34.56 9.51947 14.92636 21.89935 16.63678 19.20001 20.05334zm-23.46667 -18.34668c0 0 -2.56 -36.26666 -2.56 -36.26666 0 0 -13.65332 -7.67999 -13.65332 -7.67999 0 0 -26.02667 6.39999 -26.02667 6.39999 0 0 -31.52493 6.46454 -11.52002 25.17334 21.58932 20.19046 61.52826 25.60892 65.70669 25.17334 4.33075 -0.45151 -2.42721 2.12637 -11.94668 -12.80002z"
        fill="#3b434f" />
    <path
        d="M303.05926 374.6514c0 0 27.03968 6.22381 27.03968 6.22381 0 0 33.11261 7.51847 11.08276 29.8888 -22.02991 22.37033 -78.68765 26.32098 -78.68765 26.32098 0 0 14.98028 -7.11246 21.34598 -17.11777 0 0 2.13461 -35.94732 2.13461 -35.94732 0 0 17.08462 -9.3685 17.08462 -9.3685z"
        fill="#f5f3ef" />
    <path
        d="M261.64023 438.79804c1.67773 2.12863 48.85556 0.66503 81.54162 -27.81638 23.66666 -20.62225 -11.95373 -32.52377 -11.95373 -32.52377 0 0 -26.04211 -5.99122 -26.04211 -5.99122 0 0 -22.62671 11.55448 -22.62671 11.55448 0 0 -1.70771 34.66351 -1.70771 34.66351 -9.52508 14.97107 -21.91229 16.68659 -19.21136 20.11338zm23.48056 -18.40162c0 0 2.56152 -36.37527 2.56152 -36.37527 0 0 13.66144 -7.70297 13.66144 -7.70297 0 0 26.04208 6.41915 26.04208 6.41915 0 0 31.54364 6.48389 11.52683 25.24872 -21.60211 20.25095 -61.56473 25.68561 -65.74561 25.24872 -4.33334 -0.45285 2.42865 2.13272 11.95374 -12.83835z"
        fill="#3b434f" />
    <path
        d="M259.21466 116.46664c53.07788 0 94.97229 49.60123 93.61008 109.19831 0 0 -1.44782 63.34115 -1.44782 63.34115 -1.28332 56.14637 -42.53149 100.52722 -92.16226 100.52722 -49.63077 0 -90.87894 -44.38085 -92.16226 -100.52722 0 0 -1.44782 -63.34115 -1.44782 -63.34115 -1.36218 -59.59708 40.5322 -109.19831 93.61008 -109.19831z"
        fill="#ffffff" />
    <path
        d="M357.08939 223.70114c0 0 -1.51706 65.91437 -1.51706 65.91437 -1.3447 58.42731 -44.56604 104.61114 -96.57093 104.61114 -52.00491 0 -95.22622 -46.18383 -96.57095 -104.61114 0 0 -1.51709 -65.91437 -1.51709 -65.91437 -1.42734 -62.01822 42.47113 -113.63449 98.08804 -113.63449 55.61692 0 99.51535 51.61627 98.08799 113.63449zM258.7883 116.89331c-52.35227 0 -93.67392 49.21371 -92.33038 108.34518 0 0 1.42804 62.84632 1.42804 62.84632 1.26577 55.7077 41.95007 99.74185 90.90234 99.74185 48.95227 0 89.63653 -44.03415 90.90231 -99.74185 0 0 1.42801 -62.84632 1.42801 -62.84632 1.3436 -59.13147 -39.97806 -108.34518 -92.33032 -108.34518z"
        fill="#3b434f" />
    <path
        d="M354.42667 234.65332c0 0 -4.26667 69.97336 -4.26667 69.97336 0 0 -18.95022 80.77093 -92.16 90.33468 0 0 0 0.11863 0 0.11863 -0.14389 -0.0176 -0.2832 -0.0412 -0.42667 -0.0593 -0.14346 0.0181 -0.28277 0.0417 -0.42666 0.0593 0 0 0 -0.11863 0 -0.11863 -73.20975 -9.56375 -92.16001 -90.33468 -92.16001 -90.33468 0 0 -4.26666 -69.97336 -4.26666 -69.97336 18.99777 84.32669 34.98666 89.60004 34.98666 89.60004 -3.23556 -25.57114 23.04001 -23.04001 23.04001 -23.04001 16.01413 2.70508 28.76248 4.01227 38.82666 4.50097 10.06421 -0.4887 22.81253 -1.79589 38.82666 -4.50097 0 0 26.27555 -2.53113 23.04001 23.04001 0 0 15.98889 -5.27335 34.98667 -89.60004zm-47.44358 98.27307c-1.24203 -15.04162 -10.31222 -13.76617 -10.31222 -13.76617 -16.12464 4.74463 -28.78214 7.38043 -38.67087 8.72003 0 0 0 -0.0983 0 -0.0983 -9.81949 -1.32867 -22.38834 -3.94284 -38.39999 -8.64859 0 0 -9.00669 -1.26501 -10.24003 13.65335 0 0 -3.61666 14.94666 8.53336 21.33332 0 0 15.35999 16.21334 15.35999 16.21334 0 0 10.49667 3.32666 10.24002 -9.38668 0 0 -1.06836 -9.48166 5.11999 -11.09333 0 0 9.38666 0 9.38666 0 0 0 0 0.28076 0 0.28076 0 0 9.45288 0 9.45288 0 6.23199 1.625 5.15613 11.18503 5.15613 11.18503 -0.25849 12.81842 10.31219 9.46424 10.31219 9.46424 0 0 15.46836 -16.34733 15.46836 -16.34733 12.23571 -6.43945 8.59353 -21.50964 8.59353 -21.50964z"
        fill="#3b434f"
        fill-opacity="0.05882401" />
    <path
        d="M305.07999 327.32593c-7.75522 6.73382 -25.27198 13.14071 -45.65329 13.14071 -20.38135 0 -37.89811 -6.40689 -45.65335 -13.14071 0 0 -0.79346 -2.18329 0.37069 -3.34745 1.1857 -1.18569 3.04264 -0.92764 3.04264 -0.92764 7.7471 6.73841 21.85089 12.29584 42.24002 12.29584 20.3891 0 34.49289 -5.55743 42.23999 -12.29584 0 0 1.89502 -0.70395 2.81558 0.21662 1.77304 1.77304 0.59772 4.05847 0.59772 4.05847z"
        fill="#3b434f" />
    <path
        d="M245.34668 350.70666c0 0 27.30667 0 27.30667 0 0 0 0 4.26667 0 4.26667 0 0 -27.30667 0 -27.30667 0 0 0 0 -4.26667 0 -4.26667z"
        fill="#3b434f" />
    <path
        d="M160.80722 233.31314c-0.0118 0.00067 -1.04761 -0.82654 -3.0036 -1.44238 -0.9776 -0.30725 -2.1926 -0.56 -3.57745 -0.62232 -0.34586 -0.0156 -0.70182 -0.0192 -1.06604 -0.009 -0.36423 0.0103 -0.73676 0.0347 -1.11542 0.0751 -0.75723 0.0809 -1.53931 0.22628 -2.3263 0.45266 -3.15115 0.90558 -6.36572 3.10733 -8.25363 7.65177 -0.94769 2.27234 -1.57287 5.13061 -1.73816 8.70682 -0.0413 0.89407 -0.054 1.833 -0.0359 2.81887 0.0182 0.98587 0.0671 2.01868 0.14887 3.1005 0.16342 2.16354 0.45853 4.52316 0.89822 7.09439 -0.01 -0.003 -0.41009 7.76999 2.36859 16.70114 2.61225 8.73196 8.88508 19.4584 20.46689 22.52359 -1.33203 -22.17938 -1.37341 -44.77451 -2.76611 -67.05127 0 0 0 0 0 0z"
        fill="#ffffff" />
    <path
        d="M162.12787 234.20727c0 0 -20.17639 -6.25167 -19.46634 14.49082 0 0 3.00391 30.07727 4.30835 32.84927 0 0 7.92383 17.51203 21.00098 18.28812 12.781 0.75851 0 0 0 0 0 0 0.15872 5.64453 0.15872 5.64453 0 0 -22.98465 -2.94699 -27.42398 -29.4346 0 0 -3.50388 -24.06271 -3.50388 -24.06271 0 0 -2.72061 -31.84464 23.66946 -23.7479 25.70929 7.88788 0 0 0 0 0 0 1.25669 5.97247 1.25669 5.97247"
        fill="#3b434f" />
    <path
        d="M155.46832 275.99481c0 0 -1.12915 0.85333 -2.09915 0.85333 -0.97 0 -2.08539 -0.85333 -2.08539 -0.85333 0 0 -2.08221 -20.98279 -2.08221 -20.98279 0 0 2.87292 -10.33346 15.06381 -4.87252 0 0 0.28818 5.99972 0.28818 5.99972 0 0 -10.69565 -3.79321 -10.47449 0.93021 0.21289 4.54654 1.38925 18.92538 1.38925 18.92538z"
        fill="#3b434f" />
    <path
        d="M356.81342 233.36212c0.0118 0.00067 1.05221 -0.82596 3.01675 -1.44141 0.9819 -0.30703 2.20221 -0.5596 3.59314 -0.62188 0.34735 -0.0155 0.70486 -0.0192 1.07071 -0.009 0.36581 0.0103 0.73996 0.0347 1.1203 0.0751 0.76053 0.0808 1.54605 0.22614 2.33649 0.45236 3.16494 0.90497 6.39358 3.10523 8.28976 7.64658 0.95184 2.27078 1.57977 5.1271 1.74576 8.7009 0.0415 0.89346 0.0542 1.83175 0.036 2.81695 -0.0183 0.9852 -0.0674 2.0173 -0.14954 3.09839 -0.16412 2.16208 -0.46054 4.52011 -0.90216 7.08957 0.01 -0.003 0.4119 7.76474 -2.37897 16.68982 -2.62365 8.72604 -8.92397 19.44519 -20.55651 22.5083 1.33786 -22.16434 1.37942 -44.74411 2.77823 -67.00577 0 0 0 0 0 0z"
        fill="#ffffff" />
    <path
        d="M355.4826 234.25568c0 0 20.26477 -6.24744 19.55161 14.48095 0 0 -3.01706 30.05686 -4.32724 32.82697 0 0 -7.95853 17.50015 -21.09293 18.27572 -12.837 0.758 0 0 0 0 0 0 -0.15942 5.64069 -0.15942 5.64069 0 0 23.0853 -2.94498 27.54407 -29.41461 0 0 3.51922 -24.04639 3.51922 -24.04639 0 0 2.73255 -31.82303 -23.77313 -23.73178 -25.82187 7.88254 0 0 0 0 0 0 -1.26218 5.96845 -1.26218 5.96845"
        fill="#3b434f" />
    <path
        d="M362.17133 276.01483c0 0 1.13409 0.85275 2.10833 0.85275 0.97425 0 2.09452 -0.85275 2.09452 -0.85275 0 0 2.09133 -20.96854 2.09133 -20.96854 0 0 -2.88549 -10.32644 -15.12979 -4.86923 0 0 -0.28943 5.99567 -0.28943 5.99567 0 0 10.7425 -3.79065 10.52036 0.92957 -0.21381 4.54345 -1.39532 18.91253 -1.39532 18.91253z"
        fill="#3b434f" />
    <path
        d="M266.89334 274.33334c0.49771 0 0.99561 0 1.49332 0 3.08746 4.19297 4.34357 10.63642 5.97332 16.21332 0.50507 1.7283 0.0151 4.75131 -0.42666 5.97333 -1.61777 4.47552 -6.69763 4.3952 -10.87998 6.39999 -1.12323 0.53845 -1.95874 1.46784 -3.41333 1.7067 -0.9483 -0.83533 -2.09329 -0.99939 -2.56002 -2.34668 -1.15232 -1.58673 0.33282 -2.57761 1.49334 -3.20001 2.10624 -1.12958 8.60816 -2.24289 9.38666 -4.26667 0.96323 -1.09573 0.32275 -4.39016 0 -5.54666 -0.8266 -2.96216 -1.22336 -5.43512 -2.34665 -8.10666 -0.74615 -1.7745 -2.05618 -3.6455 -1.28 -5.76001 0.64319 -0.27618 2.0333 -0.59021 2.56 -1.06665z"
        fill="#3b434f" />
    <path
        d="M204.81332 244.21066c0 0 15.36002 0 15.36002 0 2.12076 0 3.84 2.06308 3.84 4.608 0 2.54493 -1.71924 4.60801 -3.84 4.60801 0 0 -15.36002 0 -15.36002 0 -2.12075 0 -3.83999 -2.06308 -3.83999 -4.60801 0 -2.54492 1.71924 -4.608 3.83999 -4.608z"
        fill="#3b434f" />
    <path
        d="M298.67999 243.18668c0 0 15.36002 0 15.36002 0 2.12076 0 3.83999 2.06304 3.83999 4.608 0 2.54492 -1.71923 4.60797 -3.83999 4.60797 0 0 -15.36002 0 -15.36002 0 -2.12076 0 -3.83999 -2.06305 -3.83999 -4.60797 0 -2.54496 1.71923 -4.608 3.83999 -4.608z"
        fill="#3b434f" />
    <path
        d="M211.64001 269.64001c8.24744 0 14.93332 0.47321 14.93332 9.81333 0 9.63391 -6.68588 9.81332 -14.93332 9.81332 -8.24746 0 -14.93331 -1.75451 -14.93331 -9.81332 0 -9.4137 6.68585 -9.81333 14.93331 -9.81333z"
        fill="#000000"
        fill-opacity="0.121569" />
    <path
        d="M310.62668 269.64001c8.24744 0 14.93332 0.47321 14.93332 9.81333 0 9.63391 -6.68588 9.81332 -14.93332 9.81332 -8.24747 0 -14.93332 -1.75451 -14.93332 -9.81332 0 -9.4137 6.68585 -9.81333 14.93332 -9.81333z"
        fill="#000000"
        fill-opacity="0.121569" />
    <path
        d="M351.93991 228.87961c-0.57718 4.9299 -1.08426 10.96264 -2.15024 16.35626 -3.18759 16.12851 -17.04629 31.07147 -40.71008 32.77408 -23.66376 1.7026 -43.8038 -10.21036 -44.98404 -26.60837 -0.2001 -2.7803 -0.73541 -5.90033 -1.14621 -8.93368 -3.34885 -1.8566 -6.80045 -1.86084 -10.35477 -0.0126 -0.4151 3.10202 -0.97058 6.30411 -1.17544 9.15091 -1.18393 16.45236 -21.38748 28.40482 -45.12589 26.69656 -23.7384 -1.70825 -37.64081 -16.70071 -40.83847 -32.88269 -1.06933 -5.4115 -1.578 -11.46423 -2.15701 -16.41049 0 0 -3.48831 -0.25104 -3.48831 -0.25104 0 0 0.48999 -6.80905 0.48999 -6.80905 0 0 0.85113 0.0613 0.85113 0.0613 0 0 21.58853 1.55356 21.58853 1.55356 0 0 18.22309 1.31137 18.22309 1.31137 0 0 18.25696 1.31378 18.25696 1.31378 0 0 28.43667 2.04636 28.43667 2.04636 1.96118 0.24805 3.26526 1.08914 4.10507 2.34476 4.0839 1.78768 8.05012 1.79483 11.89862 0.0211 0.83222 -1.33639 2.15384 -2.23611 4.1875 -2.49328 0 0 28.34729 -2.03958 28.34729 -2.03958 0 0 18.19959 -1.30945 18.19959 -1.30945 0 0 18.1658 -1.30704 18.1658 -1.30704 0 0 21.52066 -1.54843 21.52066 -1.54843 0 0 0.84845 -0.061 0.84845 -0.061 0 0 0.48847 6.78656 0.48847 6.78656 0 0 -3.47736 0.25022 -3.47736 0.25022zm-111.92004 7.35766c0 0 -55.73157 -4.01052 -55.73157 -4.01052 -7.28925 -0.62842 -9.87296 7.56277 -10.32221 13.80578 -0.94714 13.16187 13.71817 24.94229 32.75589 26.31229 19.03772 1.36996 35.23868 -8.18924 36.18583 -21.35114 0.44925 -6.24298 2.4884 -10.09857 -2.88794 -14.75641zm101.28524 9.60907c-0.44784 -6.22238 -3.02343 -14.38653 -10.28976 -13.76019 0 0 -55.55637 3.99728 -55.55637 3.99728 -5.35943 4.64249 -3.32669 8.4853 -2.87887 14.70768 0.94418 13.1184 17.09421 22.64605 36.07208 21.28058 18.97788 -1.36545 33.59711 -13.10697 32.65292 -26.22535z"
        fill="#3b444f" />
    <path
        d="M163.75095 229.53336c0 0 3.29214 -51.3967 35.0097 -74.24002 0 0 45.79684 31.15331 117.83765 0 0 0 31.86432 14.51333 36.71753 74.24002 0 0 1.71057 0 1.71057 0 0 0 9.1232 -68.41337 -14.51904 -95.57337 0 0 -5.82383 -20.79999 -36.7175 -35.839995 0 0 -11.10065 6.826695 -11.10065 6.826695 0 0 -7.45825 -9.126713 -27.32468 -20.480015 0 0 -14.69302 6.546661 -22.20129 17.919985 0 0 -11.95453 -7.679995 -11.95453 -7.679995 0 0 -16.70435 7.646665 -26.47076 21.333345 0 0 -17.93183 2.55997 -17.93183 2.55997 0 0 -9.39285 17.06668 -9.39285 17.06668 0 0 -22.42093 18.06332 -15.37293 92.16 0 0 1.71061 1.7067 1.71061 1.7067z"
        fill="#9ea0a4" />
    <path
        d="M358.43973 229.53336c0 0 -8.11057 -0.42667 -8.11057 -0.42667C345.47595 169.38 316.5983 158.70666 316.5983 158.70666 244.55749 189.85998 198.76065 158.28 198.76065 158.28c-27.70312 23.63333 -32.02304 71.68002 -32.02304 71.68002 0 0 -7.25726 -2.13336 -7.25726 -2.13336 -7.04801 -74.09668 15.37292 -93.44 15.37292 -93.44 0 0 10.24619 -18.77335 10.24619 -18.77335 0 0 18.78515 -2.55997 18.78515 -2.55997 9.76642 -13.686671 27.75077 -22.186671 27.75077 -22.186671 0 0 11.1513 7.253326 11.1513 7.253326 7.50827 -11.373321 23.03998 -17.06665 23.03998 -17.06665 19.86642 11.353302 27.30667 20.053315 27.30667 20.053315 0 0 11.50986 -6.399995 11.50986 -6.399995 30.89367 15.040005 39.27749 38.826655 39.27749 38.826655 23.64225 27.16001 14.51905 96.00004 14.51905 96.00004zm-20.07971 -94.29337c0 0 -3.66636 -18.66666 -34.56003 -33.70666 0 0 -11.51999 6.82665 -11.51999 6.82665 0 0 -7.44025 -9.126673 -27.30667 -20.479975 0 0 -13.39838 6.973328 -20.90665 18.346645 0 0 -12.80002 -8.106655 -12.80002 -8.106655 0 0 -15.40692 7.220005 -25.17334 20.906675 0 0 -17.06665 2.56 -17.06665 2.56 0 0 -8.95999 16.21332 -8.95999 16.21332 0 0 -18.61023 14.21444 -16.64001 71.68002 0 0 0.42666 -0.42667 0.42666 -0.42667 0 0 5.92087 -35.72113 34.90732 -57.6 0 0 47.07684 32.00665 119.11765 0.85333 0 0 26.61517 12.51663 35.8417 57.17334 0 0 5.47669 -45.93112 -15.35998 -74.24002z"
        fill="#3b434f" />
    <path
        d="M260.13913 103.673c0.62775 0.46698 0.31699 0.89911 0.18066 1.48304 -0.20337 0.87115 -0.44464 1.73343 -0.58053 2.60272 -0.20597 1.31723 -0.39374 2.63601 -0.44763 3.93558 -0.0453 1.09277 -0.0257 2.18194 -0.007 3.26413 0.011 0.62494 0.11792 1.2488 0.1333 1.87475 0.006 0.24973 0.0742 0.50019 0.0812 0.75433 0.0153 0.069 0.0306 0.13798 0.046 0.20691 0.009 0.31943 0.0926 0.62412 0.10147 0.94294 0.0521 0.28866 0.10425 0.57739 0.15634 0.86605 0.0767 0.45746 0.11392 0.935 0.25385 1.38062 0.0154 0.1141 0.0307 0.22827 0.0461 0.34238 0.11102 0.35412 0.14737 0.71963 0.25909 1.07489 0.008 0.0702 0.016 0.14035 0.024 0.21054 0.16214 0.5122 0.23517 1.05111 0.39685 1.56015 0.26254 0.82657 0.47617 1.65664 0.76575 2.48135 0.19204 0.54697 0.3576 1.11997 0.55081 1.67014 0.3439 0.97937 0.76358 1.93588 1.14157 2.9046 0.2301 0.58969 0.53882 1.13452 0.78531 1.72165 0.69757 1.66156 1.5939 3.29461 2.45102 4.92331 0.27691 0.52618 0.58087 1.0101 0.88775 1.52401 0.19578 0.32792 0.39905 0.69535 0.57963 1.03309 0.0999 0.18688 0.22509 0.32779 0.33376 0.50927 0.2356 0.3934 0.49085 0.81626 0.72266 1.21262 0.21439 0.36655 0.45642 0.67956 0.69321 1.03686 0.25519 0.38511 0.5079 0.81855 0.7666 1.20536 0.44955 0.67221 0.92639 1.32183 1.37167 1.98581 0.46262 0.68978 0.98264 1.3005 1.47245 1.98043 0.94925 1.31766 2.0588 2.58173 3.08221 3.90424 0.30634 0.39584 0.67282 0.74194 0.97903 1.125 0.15275 0.1911 0.40812 0.35806 0.51151 0.55887 0.0421 0.0818 0.0661 0.20776 0.0955 0.30032 0.0472 0.14896 0.035 0.33292 0.037 0.49066 0.003 0.25254 0.0155 0.50833 -0.0287 0.77256 -0.0458 0.27377 -0.2197 0.5751 -0.33273 0.84545 -0.0908 0.21702 -0.31687 0.40833 -0.44477 0.51398 -0.10763 0.089 -0.15204 0.17169 -0.26175 0.25788 -0.28543 0.2243 -0.60843 0.40878 -0.92099 0.50256 -0.324 0.0972 -0.74276 -0.19379 -0.99871 -0.50076 -0.44773 -0.53702 -1.00763 -1.03003 -1.43732 -1.56849 -0.0919 -0.11514 -0.19391 -0.16622 -0.28415 -0.28039 -0.49609 -0.62756 -1.10507 -1.21851 -1.59503 -1.83591 -0.11185 -0.14093 -0.23441 -0.21994 -0.34284 -0.36099 -0.38092 -0.49548 -0.82724 -0.94205 -1.21374 -1.44745 -0.9689 -1.26688 -2.0137 -2.49097 -2.88977 -3.76675 -0.20484 -0.29828 -0.42465 -0.53385 -0.62528 -0.83356 -1.41897 -2.12009 -2.84286 -4.20346 -3.97982 -6.36377 -0.2992 -0.56845 -0.62983 -1.08539 -0.90982 -1.65582 -0.79496 -1.61963 -1.53644 -3.23825 -2.21653 -4.87186 -0.0894 -0.21463 -0.1542 -0.45462 -0.23678 -0.67209 -0.37247 -0.98065 -0.70999 -1.94906 -1.04453 -2.93197 -0.33749 -0.99155 -0.52951 -2.02744 -0.84491 -3.02149 -0.0665 -0.20965 -0.0868 -0.43704 -0.15439 -0.65188 -0.009 -0.0775 -0.0184 -0.15503 -0.0276 -0.23252 -0.0731 -0.23312 -0.0811 -0.48095 -0.15258 -0.70865 -0.17127 -0.54608 -0.22422 -1.13623 -0.31818 -1.69735 -0.0887 -0.52961 -0.20984 -1.0712 -0.2247 -1.61127 -0.0202 -0.0982 -0.0405 -0.19653 -0.0607 -0.2948 -0.01 -0.3508 -0.0983 -0.69751 -0.10705 -1.04358 -0.0152 -0.60406 -0.11103 -1.20618 -0.12226 -1.80887 -0.014 -0.74948 -0.0428 -1.50168 -0.0384 -2.2518 0.004 -0.751 0.0667 -1.48514 0.11005 -2.24252 0.11737 -2.05173 0.49258 -4.11334 0.9881 -6.23807 0.17974 -0.77072 0.46807 -1.52481 0.71081 -2.29684 0.16724 -0.53183 0.43033 -1.04429 0.61795 -1.57013 0.049 -0.13724 0.12509 -0.21878 0.17743 -0.35681 0.11243 -0.29661 0.25983 -0.66153 0.53421 -0.85627 0.12277 -0.0871 0.40494 -0.13372 0.54947 -0.091 0.10068 0.0297 0.16428 0.10712 0.2547 0.10458zM240.116 118.38147c0.4544 0.32871 0.4187 0.81012 0.42956 1.216 0.0112 0.42063 0.13217 0.83933 0.14383 1.26334 0.0491 0.29294 0.0982 0.58594 0.14722 0.87887 0.006 0.23728 0.0661 0.46232 0.10492 0.69394 0.04 0.23871 0.0573 0.47883 0.13061 0.71229 0.0442 0.26364 0.0883 0.52734 0.13248 0.79098 0.0728 0.23224 0.081 0.4805 0.15259 0.70865 0.22131 0.7056 0.30591 1.45428 0.53103 2.1589 0.23865 0.74704 0.41303 1.51938 0.67215 2.25974 0.33942 0.96985 0.67157 1.94589 1.04084 2.91 0.18881 0.49295 0.41345 0.95377 0.61474 1.44504 0.1539 0.37558 0.30017 0.78485 0.47531 1.15198 0.72742 1.52466 1.47846 3.04797 2.27857 4.56799 0.63354 1.20364 1.38934 2.3522 2.08359 3.53897 0.21405 0.36591 0.45587 0.68045 0.6932 1.03684 0.53568 0.80441 1.10568 1.64096 1.65415 2.45843 0.51852 0.77283 1.14166 1.49313 1.68698 2.24976 0.0891 0.12359 0.19226 0.19043 0.27865 0.31515 0.27643 0.39908 0.63828 0.78348 0.94245 1.17621 0.15292 0.19748 0.34671 0.33456 0.48584 0.54053 0.30459 0.45102 0.49457 1.29208 0.34939 1.8164 -0.25146 0.90839 -1.12826 1.51999 -1.79565 1.75391 -0.20139 0.0706 -0.51566 0.19833 -0.73444 0.1329 -0.34478 -0.10308 -0.56479 -0.41006 -0.7662 -0.66345 -0.26035 -0.32757 -0.56378 -0.5654 -0.81583 -0.89233 -0.4657 -0.60413 -1.01385 -1.14408 -1.47958 -1.75345 -0.97525 -1.27603 -1.97412 -2.51041 -2.84033 -3.80881 -2.00553 -3.0061 -3.66965 -6.04068 -4.96747 -9.15835 -0.53873 -1.29419 -0.97241 -2.62882 -1.40613 -3.94471 -0.15445 -0.46853 -0.23898 -0.96981 -0.3876 -1.4375 -0.20371 -0.64102 -0.29419 -1.30209 -0.49424 -1.93917 -0.0104 -0.0848 -0.0209 -0.16968 -0.0313 -0.25452 -0.0324 -0.1423 -0.0806 -0.27951 -0.10473 -0.423 -0.0166 -0.12143 -0.0332 -0.24289 -0.0497 -0.36435 -0.0754 -0.2403 -0.0931 -0.48844 -0.13427 -0.73426 -0.04 -0.23871 -0.1019 -0.47143 -0.10865 -0.71588 -0.03 -0.15686 -0.0601 -0.31375 -0.0901 -0.47058 -0.0179 -0.63989 -0.17153 -1.267 -0.18463 -1.91144 -0.003 -0.15204 -0.0516 -0.31317 -0.0553 -0.46505 -0.015 -0.61637 -0.0759 -1.23453 -0.0728 -1.85093 0.003 -0.70193 -0.003 -1.41592 0.0405 -2.11807 0.0173 -0.27664 0.0657 -0.53735 0.0781 -0.8146 0.0136 -0.30411 0.0673 -0.5954 0.10736 -0.90976 0.0238 -0.18637 0.0241 -0.41202 0.0802 -0.60038 0.057 -0.19134 0.25266 -0.50067 0.43369 -0.57992 0.12353 -0.0541 0.36154 -0.10785 0.49637 -0.0709 0.10119 0.0277 0.16378 0.10699 0.2547 0.10458zm-15.30039 3.18881c0.51068 0.37445 0.3689 0.84693 0.36551 1.30564 -0.005 0.73812 0.0693 1.47491 0.0878 2.20974 0.0147 0.58582 0.16464 1.16764 0.18085 1.754 0.0349 0.18613 0.0699 0.37231 0.10486 0.55847 0.009 0.32492 0.0792 0.74436 0.17663 1.05466 0.009 0.0775 0.0184 0.15503 0.0276 0.23251 0.0301 0.17993 0.0679 0.35694 0.12314 0.53287 0.0129 0.0995 0.0258 0.19897 0.0387 0.29843 0.13132 0.41885 0.17182 0.86697 0.30506 1.2818 0.31869 0.99213 0.57202 2.00693 0.92001 2.99774 0.75427 2.14762 1.78818 4.22931 2.88803 6.31876 0.35944 0.68286 0.80683 1.31827 1.1702 1.99661 0.15497 0.28925 0.35828 0.52411 0.53 0.8042 0.46939 0.76559 1.01355 1.5293 1.52396 2.28802 0.70642 1.05011 1.56695 2.00739 2.31771 3.04856 0.26306 0.36484 0.59525 0.68164 0.85074 1.03335 0.2272 0.31281 0.52124 0.54743 0.7645 0.85569 0.48187 0.61062 1.08935 1.1922 1.60052 1.80114 0.29505 0.35151 0.64591 0.63532 0.93131 0.97486 0.31878 0.37927 0.71978 0.68252 1.0339 1.04815 0.0794 0.0696 0.15888 0.13932 0.23831 0.20896 0.32041 0.37912 0.76764 0.71499 1.09806 1.09399 0.14102 0.16175 0.30835 0.2374 0.45092 0.39954 0.46344 0.52701 1.11707 0.9541 1.59296 1.48623 0.13584 0.15189 0.31662 0.2547 0.43811 0.39039 0.0513 0.0367 0.10263 0.0733 0.15396 0.10998 0.16422 0.18301 0.42002 0.35062 0.58658 0.53516 0.0556 0.0397 0.11118 0.0794 0.16678 0.11914 0.27209 0.302 0.69135 0.54104 0.966 0.84491 0.0727 0.0519 0.14539 0.10388 0.21808 0.15582 0.35016 0.38705 0.90561 0.66403 1.26108 1.05573 0.15945 0.12036 0.31894 0.24075 0.47839 0.36111 0.0778 0.0857 0.24585 0.15973 0.33725 0.26028 0.24204 0.2663 0.65015 0.47544 0.91278 0.7295 0.15525 0.1502 0.39869 0.25366 0.5297 0.39779 0.11554 0.12711 0.32504 0.21222 0.42703 0.32444 0.33356 0.23831 0.66718 0.47668 1.0007 0.71496 0.78952 0.56409 1.57627 1.09284 2.34046 1.63345 0.36172 0.25589 0.81082 0.45752 1.03372 0.77723 0.12591 0.1806 0.17615 0.44009 0.24228 0.63733 0.1488 0.44366 0.21023 0.97039 0.0853 1.45364 -0.038 0.14725 -0.11474 0.24661 -0.17004 0.40076 -0.0886 0.24691 -0.23587 0.63012 -0.49942 0.86178 -0.17142 0.15067 -0.35013 0.35376 -0.54001 0.48462 -0.29269 0.20166 -0.61191 0.0941 -0.96905 -0.054 -0.11423 -0.0752 -0.22849 -0.15036 -0.34272 -0.22552 -0.54766 -0.23514 -1.05935 -0.73828 -1.60907 -0.97549 -0.10589 -0.0457 -0.21676 -0.16028 -0.30423 -0.19803 -0.18264 -0.12403 -0.36532 -0.24811 -0.54797 -0.37217 -0.20105 -0.0869 -0.38165 -0.29785 -0.60846 -0.39602 -0.1897 -0.0821 -0.3837 -0.23547 -0.56998 -0.36853 -0.0684 -0.0489 -0.13684 -0.0978 -0.20526 -0.14664 -0.18307 -0.0793 -0.39935 -0.24676 -0.56997 -0.36853 -0.24802 -0.17718 -0.4961 -0.35443 -0.74411 -0.53165 -0.26636 -0.11569 -0.56177 -0.38202 -0.81742 -0.56463 -0.21179 -0.15131 -0.49865 -0.31436 -0.65799 -0.48944 -0.14538 -0.10389 -0.2908 -0.2078 -0.43618 -0.31165 -0.30365 -0.21692 -0.60306 -0.43094 -0.86695 -0.65808 -0.14538 -0.10388 -0.29083 -0.20776 -0.43622 -0.31165 -0.21051 -0.23226 -0.57559 -0.40802 -0.78448 -0.63784 -0.0984 -0.0703 -0.19672 -0.14057 -0.29507 -0.21082 -0.1525 -0.16852 -0.41562 -0.31592 -0.56641 -0.48202 -0.0855 -0.0611 -0.17105 -0.12223 -0.25659 -0.18332 -0.11566 -0.12824 -0.32215 -0.26239 -0.43808 -0.39038 -0.0684 -0.0489 -0.13684 -0.0978 -0.20526 -0.14664 -0.40064 -0.44461 -0.9874 -0.7804 -1.37845 -1.21695 -0.12219 -0.10019 -0.24439 -0.20041 -0.36658 -0.3006 -0.50568 -0.56866 -1.1893 -1.02542 -1.67731 -1.58517 -0.13269 -0.15225 -0.28231 -0.22092 -0.41244 -0.37204 -0.45111 -0.52402 -1.02686 -0.99094 -1.46106 -1.50812 -0.0716 -0.0853 -0.14136 -0.10507 -0.21265 -0.19058 -0.20468 -0.24558 -0.46908 -0.49924 -0.66733 -0.74759 -0.0923 -0.1156 -0.19232 -0.16446 -0.28414 -0.28037 -0.68689 -0.86685 -1.49442 -1.6405 -2.15976 -2.51019 -1.17832 -1.54013 -2.4076 -3.04309 -3.33921 -4.62942 -0.211 -0.35929 -0.46261 -0.65998 -0.66757 -1.01853 -0.36261 -0.6344 -0.75806 -1.25906 -1.09866 -1.90686 -0.53305 -1.01364 -1.03195 -2.03577 -1.51724 -3.05691 -0.34134 -0.71827 -0.61158 -1.49085 -0.89194 -2.22333 -0.2301 -0.60126 -0.44953 -1.18579 -0.6608 -1.78742 -0.20785 -0.59198 -0.35678 -1.20776 -0.5509 -1.80563 -0.19745 -0.60806 -0.27826 -1.2532 -0.47037 -1.86411 -0.073 -0.23205 -0.0654 -0.52496 -0.13794 -0.75622 -0.17892 -0.57028 -0.22195 -1.18997 -0.3201 -1.77609 -0.41888 -2.5018 -0.46234 -5.06363 -0.27875 -7.66544 0.0424 -0.60049 0.16739 -1.16922 0.26609 -1.78284 0.045 -0.27954 0.13668 -0.6347 0.44632 -0.84167 0.0987 -0.066 0.41262 -0.11795 0.52749 -0.0874 0.0942 0.0251 0.16806 0.10672 0.2547 0.10461z"
        fill="#3b434f"
        fill-opacity="0.2" />
</svg>