<svg xmlns="http://www.w3.org/2000/svg"
    width="512"
    height="512"
    viewBox="0 0 512 512">
    <path
        d="M419.42667 393.49841C399.03162 482.70651 294.63757 447.76904 259 432.94754c0 0 0 -0.0948 0 -0.0948 -35.63757 14.83289 -140.03162 49.79718 -160.426666 -39.4794 0 0 36.579986 0.39334 25.600006 -114.34665 0 0 -39.630097 -227.299863 134.82666 -208.301298 0 0 0 0.372467 0 0.372467 174.45676 -18.984008 134.82666 208.141571 134.82666 208.141571 -10.97998 114.65204 25.60001 114.259 25.60001 114.259z"
        fill="#3b434f" />
    <path
        d="M116.35998 502c0 0 -6.61498 -89.98822 78.08002 -98.38666 0 0 37.97333 0 37.97333 0 0 0 0 -17.49334 0 -17.49334 0 0 26.71167 11.47332 53.76001 1.27999 0 0 0.85333 16.21335 0.85333 16.21335 0 0 44.37332 0 44.37332 0 0 0 75.98542 2.98425 72.53333 99.23999 0 0 -287.57334 -0.85333 -287.57334 -0.85333z"
        fill="#ffffff" />
    <path
        d="M404.67526 505.58667c0 0 0 0 0 0 0 0 -284.51639 0 -284.51639 0 0 0 0 0 0 0 0 0 -5.51788 0 -5.51788 0 0 0 1.37735 -23.52982 1.37735 -23.52982 2.6893 -45.94223 38.88687 -81.00351 80.31 -81.00351 0 0 31.52499 0 31.52499 0 0 0 0 4.69333 0 4.69333 0 0 -29.01028 0 -29.01028 0 -39.92337 0 -74.8104 33.74842 -77.40235 77.97034 0 0 -0.95672 16.323 -0.95672 16.323 0 0 283.43951 0 283.43951 0 0 0 -0.53006 -16.323 -0.53006 -16.323 -2.59195 -44.22192 -37.47897 -77.97034 -77.40237 -77.97034 0 0 -38.83106 0 -38.83106 0 0 0 0 -4.69333 0 -4.69333 0 0 41.09275 0 41.09275 0 41.42312 0 77.62069 35.06128 80.30999 81.00351 0 0 1.37735 23.52982 1.37735 23.52982 0 0 -5.26483 0 -5.26483 0z"
        fill="#3b434f" />
    <path
        d="M257.72 453.95999c-22.85721 0 -41.38669 -18.52942 -41.38669 -41.38666 0 -3.99945 0.57862 -7.86163 1.63715 -11.51999 0 0 0.0695 0 0.0695 0 0 0 4.39178 0 4.39178 0 0 0 7.55487 0 7.55487 0 0 0 0 4.69333 0 4.69333 0 0 -8.74801 0 -8.74801 0 -0.41422 2.21317 -0.63867 4.49305 -0.63867 6.82666 0 20.50083 16.61923 37.12 37.12002 37.12 20.50082 0 37.12 -16.61917 37.12 -37.12 0 -2.33361 -0.22443 -4.61349 -0.63868 -6.82666 0 0 -8.74798 0 -8.74798 0 0 0 0 -4.69333 0 -4.69333 0 0 7.55484 0 7.55484 0 0 0 4.39181 0 4.39181 0 0 0 0.0695 0 0.0695 0 1.05854 3.65836 1.63715 7.52054 1.63715 11.51999 0 22.85724 -18.52942 41.38666 -41.38666 41.38666z"
        fill="#3b434f" />
    <path
        d="M233.39999 384.14609c0 0 0 26.31509 0 26.31509 0 13.65549 11.07947 24.7255 24.74668 24.7255 13.6672 0 24.74667 -11.07001 24.74667 -24.7255 0 0 0 -25.77219 0 -25.77219 1.43616 -0.43713 2.8588 -0.91192 4.26666 -1.42486 0 0 0 27.37616 0 27.37616 0 16.14862 -13.0852 29.23971 -29.22665 29.23971 -16.14145 0 -29.22669 -13.09109 -29.22669 -29.23971 0 0 0 -28.18662 0 -28.18662 1.54584 0.61124 3.11155 1.17344 4.69333 1.69242z"
        fill="#3b434f" />
    <path
        d="M259.21466 116.46664c53.07788 0 94.97229 49.60123 93.61008 109.19831 0 0 -1.44782 63.34115 -1.44782 63.34115 -1.28332 56.14637 -42.53149 100.52722 -92.16226 100.52722 -49.63077 0 -90.87894 -44.38085 -92.16226 -100.52722 0 0 -1.44782 -63.34115 -1.44782 -63.34115 -1.36218 -59.59708 40.5322 -109.19831 93.61008 -109.19831z"
        fill="#ffffff" />
    <path
        d="M357.08939 223.70114c0 0 -1.51706 65.91437 -1.51706 65.91437 -1.3447 58.42731 -44.56604 104.61114 -96.57093 104.61114 -52.00491 0 -95.22622 -46.18383 -96.57095 -104.61114 0 0 -1.51709 -65.91437 -1.51709 -65.91437 -1.42734 -62.01822 42.47113 -113.63449 98.08804 -113.63449 55.61692 0 99.51535 51.61627 98.08799 113.63449zM258.7883 116.89331c-52.35227 0 -93.67392 49.21371 -92.33038 108.34518 0 0 1.42804 62.84632 1.42804 62.84632 1.26577 55.7077 41.95007 99.74185 90.90234 99.74185 48.95227 0 89.63653 -44.03415 90.90231 -99.74185 0 0 1.42801 -62.84632 1.42801 -62.84632 1.3436 -59.13147 -39.97806 -108.34518 -92.33032 -108.34518z"
        fill="#3b434f" />
    <path
        d="M305.07999 327.32593c-7.75522 6.73382 -25.27198 13.14071 -45.65329 13.14071 -20.38135 0 -37.89811 -6.40689 -45.65335 -13.14071 0 0 -0.79346 -2.18329 0.37069 -3.34745 1.1857 -1.18569 3.04264 -0.92764 3.04264 -0.92764 7.7471 6.73841 21.85089 12.29584 42.24002 12.29584 20.3891 0 34.49289 -5.55743 42.23999 -12.29584 0 0 1.89502 -0.70395 2.81558 0.21662 1.77304 1.77304 0.59772 4.05847 0.59772 4.05847z"
        fill="#3b434f" />
    <path
        d="M245.34668 350.70666c0 0 27.30667 0 27.30667 0 0 0 0 4.26667 0 4.26667 0 0 -27.30667 0 -27.30667 0 0 0 0 -4.26667 0 -4.26667z"
        fill="#3b434f" />
    <path
        d="M160.80722 233.31314c-0.0118 0.00067 -1.04761 -0.82654 -3.0036 -1.44238 -0.9776 -0.30725 -2.1926 -0.56 -3.57745 -0.62232 -0.34586 -0.0156 -0.70182 -0.0192 -1.06604 -0.009 -0.36423 0.0103 -0.73676 0.0347 -1.11542 0.0751 -0.75723 0.0809 -1.53931 0.22628 -2.3263 0.45266 -3.15115 0.90558 -6.36572 3.10733 -8.25363 7.65177 -0.94769 2.27234 -1.57287 5.13061 -1.73816 8.70682 -0.0413 0.89407 -0.054 1.833 -0.0359 2.81887 0.0182 0.98587 0.0671 2.01868 0.14887 3.1005 0.16342 2.16354 0.45853 4.52316 0.89822 7.09439 -0.01 -0.003 -0.41009 7.76999 2.36859 16.70114 2.61225 8.73196 8.88508 19.4584 20.46689 22.52359 -1.33203 -22.17938 -1.37341 -44.77451 -2.76611 -67.05127 0 0 0 0 0 0z"
        fill="#ffffff" />
    <path
        d="M162.12787 234.20727c0 0 -20.17639 -6.25167 -19.46634 14.49082 0 0 3.00391 30.07727 4.30835 32.84927 0 0 7.92383 17.51203 21.00098 18.28812 12.781 0.75851 0 0 0 0 0 0 0.15872 5.64453 0.15872 5.64453 0 0 -22.98465 -2.94699 -27.42398 -29.4346 0 0 -3.50388 -24.06271 -3.50388 -24.06271 0 0 -2.72061 -31.84464 23.66946 -23.7479 25.70929 7.88788 0 0 0 0 0 0 1.25669 5.97247 1.25669 5.97247"
        fill="#3b434f" />
    <path
        d="M155.46832 275.99481c0 0 -1.12915 0.85333 -2.09915 0.85333 -0.97 0 -2.08539 -0.85333 -2.08539 -0.85333 0 0 -2.08221 -20.98279 -2.08221 -20.98279 0 0 2.87292 -10.33346 15.06381 -4.87252 0 0 0.28818 5.99972 0.28818 5.99972 0 0 -10.69565 -3.79321 -10.47449 0.93021 0.21289 4.54654 1.38925 18.92538 1.38925 18.92538z"
        fill="#3b434f" />
    <path
        d="M356.81342 233.36212c0.0118 0.00067 1.05221 -0.82596 3.01675 -1.44141 0.9819 -0.30703 2.20221 -0.5596 3.59314 -0.62188 0.34735 -0.0155 0.70486 -0.0192 1.07071 -0.009 0.36581 0.0103 0.73996 0.0347 1.1203 0.0751 0.76053 0.0808 1.54605 0.22614 2.33649 0.45236 3.16494 0.90497 6.39358 3.10523 8.28976 7.64658 0.95184 2.27078 1.57977 5.1271 1.74576 8.7009 0.0415 0.89346 0.0542 1.83175 0.036 2.81695 -0.0183 0.9852 -0.0674 2.0173 -0.14954 3.09839 -0.16412 2.16208 -0.46054 4.52011 -0.90216 7.08957 0.01 -0.003 0.4119 7.76474 -2.37897 16.68982 -2.62365 8.72604 -8.92397 19.44519 -20.55651 22.5083 1.33786 -22.16434 1.37942 -44.74411 2.77823 -67.00577 0 0 0 0 0 0z"
        fill="#ffffff" />
    <path
        d="M355.4826 234.25568c0 0 20.26477 -6.24744 19.55161 14.48095 0 0 -3.01706 30.05686 -4.32724 32.82697 0 0 -7.95853 17.50015 -21.09293 18.27572 -12.837 0.758 0 0 0 0 0 0 -0.15942 5.64069 -0.15942 5.64069 0 0 23.0853 -2.94498 27.54407 -29.41461 0 0 3.51922 -24.04639 3.51922 -24.04639 0 0 2.73255 -31.82303 -23.77313 -23.73178 -25.82187 7.88254 0 0 0 0 0 0 -1.26218 5.96845 -1.26218 5.96845"
        fill="#3b434f" />
    <path
        d="M362.17133 276.01483c0 0 1.13409 0.85275 2.10833 0.85275 0.97425 0 2.09452 -0.85275 2.09452 -0.85275 0 0 2.09133 -20.96854 2.09133 -20.96854 0 0 -2.88549 -10.32644 -15.12979 -4.86923 0 0 -0.28943 5.99567 -0.28943 5.99567 0 0 10.7425 -3.79065 10.52036 0.92957 -0.21381 4.54345 -1.39532 18.91253 -1.39532 18.91253z"
        fill="#3b434f" />
    <path
        d="M266.89334 274.33334c0.49771 0 0.99561 0 1.49332 0 3.08746 4.19297 4.34357 10.63642 5.97332 16.21332 0.50507 1.7283 0.0151 4.75131 -0.42666 5.97333 -1.61777 4.47552 -6.69763 4.3952 -10.87998 6.39999 -1.12323 0.53845 -1.95874 1.46784 -3.41333 1.7067 -0.9483 -0.83533 -2.09329 -0.99939 -2.56002 -2.34668 -1.15232 -1.58673 0.33282 -2.57761 1.49334 -3.20001 2.10624 -1.12958 8.60816 -2.24289 9.38666 -4.26667 0.96323 -1.09573 0.32275 -4.39016 0 -5.54666 -0.8266 -2.96216 -1.22336 -5.43512 -2.34665 -8.10666 -0.74615 -1.7745 -2.05618 -3.6455 -1.28 -5.76001 0.64319 -0.27618 2.0333 -0.59021 2.56 -1.06665z"
        fill="#3b434f" />
    <path
        d="M204.81332 244.21066c0 0 15.36002 0 15.36002 0 2.12076 0 3.84 2.06308 3.84 4.608 0 2.54493 -1.71924 4.60801 -3.84 4.60801 0 0 -15.36002 0 -15.36002 0 -2.12075 0 -3.83999 -2.06308 -3.83999 -4.60801 0 -2.54492 1.71924 -4.608 3.83999 -4.608z"
        fill="#3b434f" />
    <path
        d="M298.67999 243.18668c0 0 15.36002 0 15.36002 0 2.12076 0 3.83999 2.06304 3.83999 4.608 0 2.54492 -1.71923 4.60797 -3.83999 4.60797 0 0 -15.36002 0 -15.36002 0 -2.12076 0 -3.83999 -2.06305 -3.83999 -4.60797 0 -2.54496 1.71923 -4.608 3.83999 -4.608z"
        fill="#3b434f" />
    <path
        d="M310.62668 269.64001c5.89102 0 10.66666 4.77564 10.66666 10.66666 0 5.89102 -4.77564 10.66666 -10.66666 10.66666 -5.89105 0 -10.66666 -4.77564 -10.66666 -10.66666 0 -5.89102 4.77561 -10.66666 10.66666 -10.66666z"
        fill="#edf1f1" />
    <path
        d="M207.37335 269.64001c5.89102 0 10.66666 4.77564 10.66666 10.66666 0 5.89102 -4.77564 10.66666 -10.66666 10.66666 -5.89105 0 -10.66665 -4.77564 -10.66665 -10.66666 0 -5.89102 4.7756 -10.66666 10.66665 -10.66666z"
        fill="#edf1f1" />
    <path
        d="M344.33334 230.38666c0 0 0 31.57333 0 31.57333 0 7.71573 -7.52643 19.75546 -19.79049 20.44495 -1.80161 -0.0859 -38.23618 0.0351 -38.23618 0.0351 -16.37833 0 -19.62668 -19.62668 -19.62668 -19.62668 0 0 0 -21.33331 0 -21.33331 0 0 -15.35998 0 -15.35998 0 0 0 0 21.33331 0 21.33331 0 0 -3.24836 19.62668 -19.62668 19.62668 0 0 -36.43457 -0.12097 -38.23618 -0.0351 -12.26407 -0.68949 -19.79049 -12.72922 -19.79049 -20.44495 0 0 0 -31.57333 0 -31.57333 0 0 -13.65332 0 -13.65332 0 0 0 0 -8.53333 0 -8.53333 0 0 79.35998 0 79.35998 0 0 0 11.94669 1.92999 11.94669 10.23999 0 0 15.35998 0 15.35998 0 0 -8.31 11.94669 -10.23999 11.94669 -10.23999 0 0 79.35998 0 79.35998 0 0 0 0 8.53333 0 8.53333 0 0 -13.65332 0 -13.65332 0zm-101.54669 4.26666c0 -3.04166 -3.41333 -3.41333 -3.41333 -3.41333 0 0 -57.17331 0 -57.17331 0 0 0 0 29.86667 0 29.86667 0 9.30585 12.79999 12.80002 12.79999 12.80002 0 0 34.98666 0 34.98666 0 12.03751 0 12.79999 -12.80002 12.79999 -12.80002 0 0 0 -23.41165 0 -26.45334zm93.01334 -3.41333c0 0 -57.17331 0 -57.17331 0 0 0 -3.41333 0.37167 -3.41333 3.41333 0 3.04169 0 26.45334 0 26.45334 0 0 0.76248 12.80002 12.79999 12.80002 0 0 34.98666 0 34.98666 0 0 0 12.79999 -3.49417 12.79999 -12.80002 0 0 0 -29.86667 0 -29.86667zM323.85333 282.44c0.23264 -0.005 0.46015 -0.0222 0.68952 -0.0351 0.19287 0.009 -0.00089 0.0207 -0.68952 0.0351zm-130.39618 -0.0351c0.22937 0.0129 0.45688 0.0302 0.68952 0.0351 -0.68863 -0.0143 -0.88239 -0.0258 -0.68952 -0.0351z"
        fill="#3b434f" />
    <path
        d="M259 163.00937c0 0 0 -94.478578 0 -94.478578 0.28479 -0.0022 0.56802 -0.0108 0.85333 -0.0108 59.85294 0 108.37332 48.520418 108.37332 108.373348 0 0 0 34.82999 0 34.82999 -0.0217 1.21377 -0.0229 2.40509 0 3.57001 0 0 -100.64874 -27.21995 -109.22665 -52.28397zm-109.22665 52.28397c0.0229 -1.16492 0.0217 -2.35624 0 -3.57001 0 0 0 -34.82999 0 -34.82999 0 -59.85293 48.52038 -108.373351 108.37332 -108.373351 0.28531 0 0.56854 0.0086 0.85333 0.0108 0 0 0 94.478581 0 94.478581 -8.57791 25.06402 -109.22665 52.28397 -109.22665 52.28397z"
        fill="#3b434f" />
</svg>