<svg xmlns="http://www.w3.org/2000/svg"
	width="512" 
    height="512" 
    viewBox="0 0 512 512">
    <path
        d="M111 504c0 0 -10.30188 -90.31113 78.44 -100.38666 0 0 37.97333 0 37.97333 0 0 0 0 -17.49334 0 -17.49334 0 0 26.71167 11.47332 53.76001 1.27999 0 0 0.85333 16.21335 0.85333 16.21335 0 0 44.37332 0 44.37332 0 0 0 77.27347 7.71427 72.60001 100.38666 0 0 -288 0 -288 0z"
        fill="#ffffff" />
    <path
        d="M398.26193 505.58667c0 0 0 0 0 0 0 0 -284.51639 0 -284.51639 0 0 0 0 0 0 0 0 0 -5.51788 0 -5.51788 0 0 0 1.37735 -23.52982 1.37735 -23.52982 2.6893 -45.94223 38.88687 -81.00351 80.31 -81.00351 0 0 37.49832 0 37.49832 0 0 0 0 4.69333 0 4.69333 0 0 -34.98361 0 -34.98361 0 -39.92337 0 -74.8104 33.74842 -77.40235 77.97034 0 0 -0.95672 16.323 -0.95672 16.323 0 0 283.43951 0 283.43951 0 0 0 -0.53006 -16.323 -0.53006 -16.323 -2.59195 -44.22192 -37.47897 -77.97034 -77.40237 -77.97034 0 0 -35.41773 0 -35.41773 0 0 0 0 -4.69333 0 -4.69333 0 0 37.67942 0 37.67942 0 41.42312 0 77.62069 35.06128 80.30999 81.00351 0 0 1.37735 23.52982 1.37735 23.52982 0 0 -5.26483 0 -5.26483 0z"
        fill="#3b434f" />
    <path
        d="M230.39999 384.14609c0 0 0 26.31509 0 26.31509 0 13.65549 11.07947 24.7255 24.74668 24.7255 13.6672 0 24.74667 -11.07001 24.74667 -24.7255 0 0 0 -25.77219 0 -25.77219 1.43616 -0.43713 2.8588 -0.91192 4.26666 -1.42486 0 0 0 27.37616 0 27.37616 0 16.14862 -13.0852 29.23971 -29.22665 29.23971 -16.14145 0 -29.22669 -13.09109 -29.22669 -29.23971 0 0 0 -28.18662 0 -28.18662 1.54584 0.61124 3.11155 1.17344 4.69333 1.69242z"
        fill="#3b434f" />
    <path
        d="M331.71994 457.48935c0 0 -12.08536 25.20691 -12.08536 25.20691 -0.61123 1.2749 -2.14026 1.8129 -3.41513 1.20166 -1.2749 -0.61124 -1.81289 -2.14026 -1.20166 -3.41516 0 0 11.67203 -24.34476 11.67203 -24.34476 0 0 -9.12018 -15.7966 -9.12018 -15.7966 -0.70691 -1.22443 -0.28741 -2.7901 0.93701 -3.49701 1.22446 -0.70694 2.7901 -0.28741 3.49704 0.93701 0 0 9.81333 16.99719 9.81333 16.99719 0.5057 0.87589 0.43237 1.9249 -0.0971 2.71076z"
        fill="#3b434f" />
    <path
        d="M178.3624 457.51395c0 0 12.1502 25.28451 12.1502 25.28451 0.61451 1.27884 2.15174 1.81848 3.43344 1.20535 1.28174 -0.61312 1.82264 -2.14685 1.2081 -3.42565 0 0 -11.73462 -24.41971 -11.73462 -24.41971 0 0 9.1691 -15.84525 9.1691 -15.84525 0.7107 -1.22818 0.28894 -2.79867 -0.94204 -3.50778 -1.23102 -0.70911 -2.80506 -0.2883 -3.51578 0.93991 0 0 -9.86597 17.04953 -9.86597 17.04953 -0.50842 0.87857 -0.43472 1.93082 0.0976 2.71909z"
        fill="#3b434f" />
    <path
        d="M225.70666 400.20001c0 0 4.69333 0 4.69333 0 0 0 0 103.67999 0 103.67999 0 0 -4.69333 0 -4.69333 0 0 0 0 -103.67999 0 -103.67999z"
        fill="#3b434f" />
    <path
        d="M279.89334 401.05334c0 0 4.69333 0 4.69333 0 0 0 0 103.68 0 103.68 0 0 -4.69333 0 -4.69333 0 0 0 0 -103.68 0 -103.68z"
        fill="#3b434f" />
    <path
        d="M243 451c0 0 12 -13 12 -13 0 0 13 13 13 13 0 0 -7 7 -7 7 0 0 11 45 11 45 0 0 -34 0 -34 0 0 0 12 -45 12 -45 0 0 -7 -7 -7 -7z"
        fill="#3b434f" />
    <path
        d="M269.69928 503.68967c0 0 -12.09396 -45.13526 -12.09396 -45.13526 0 0 2.51468 -0.75442 2.51468 -0.75442 0 0 1.66738 -1.77158 1.66738 -1.77158 0 0 12.79123 47.73749 12.79123 47.73749 0 0 -4.87933 -0.0762 -4.87933 -0.0762zm-34.11429 -0.53302c0 0 12.62613 -46.90903 12.62613 -46.90903 0 0 0.81555 0.69904 0.81555 0.69904 0 0 2.56 1.70666 2.56 1.70666 0 0 0.84405 0.0844 0.84405 0.0844 0 0 -11.97631 44.495 -11.97631 44.495 0 0 -4.86942 -0.0761 -4.86942 -0.0761z"
        fill="#3b434f" />
    <path
        d="M284.14557 463.78775c0 0 -3.3187 3.31869 -3.3187 3.31869 0 0 -12.91326 -12.91326 -12.91326 -12.91326 -2.49192 3.95782 -6.89118 6.59347 -11.91361 6.59347 -5.22537 0 -9.77585 -2.85269 -12.20493 -7.07992 0 0 -13.4797 13.47973 -13.4797 13.47973 0 0 -3.32761 -3.3276 -3.32761 -3.3276 0 0 26.53885 -26.53885 26.53885 -26.53885 0 0 2.07559 -1.92444 2.07559 -1.92444 0 0 2.07559 1.92444 2.07559 1.92444 0 0 26.46778 26.46774 26.46778 26.46774zm-37.74002 -12.6915c1.70147 3.46442 5.26062 5.85041 9.3811 5.85041 4.02783 0 7.51422 -2.28321 9.25891 -5.62153 0 0 -9.43445 -9.43444 -9.43445 -9.43444 0 0 -9.20556 9.20556 -9.20556 9.20556z"
        fill="#3b434f" />
    <path
        d="M256.21466 116.46664c53.07788 0 94.97229 49.60123 93.61008 109.19831 0 0 -1.44782 63.34115 -1.44782 63.34115 -1.28332 56.14637 -42.53149 100.52722 -92.16226 100.52722 -49.63077 0 -90.87894 -44.38085 -92.16226 -100.52722 0 0 -1.44782 -63.34115 -1.44782 -63.34115 -1.36218 -59.59708 40.5322 -109.19831 93.61008 -109.19831z"
        fill="#ffffff" />
    <path
        d="M354.08939 223.70114c0 0 -1.51706 65.91437 -1.51706 65.91437 -1.3447 58.42731 -44.56604 104.61114 -96.57093 104.61114 -52.00491 0 -95.22622 -46.18383 -96.57095 -104.61114 0 0 -1.51709 -65.91437 -1.51709 -65.91437 -1.42734 -62.01822 42.47113 -113.63449 98.08804 -113.63449 55.61692 0 99.51535 51.61627 98.08799 113.63449zM255.7883 116.89331c-52.35227 0 -93.67392 49.21371 -92.33038 108.34518 0 0 1.42804 62.84632 1.42804 62.84632 1.26577 55.7077 41.95007 99.74185 90.90234 99.74185 48.95227 0 89.63653 -44.03415 90.90231 -99.74185 0 0 1.42801 -62.84632 1.42801 -62.84632 1.3436 -59.13147 -39.97806 -108.34518 -92.33032 -108.34518z"
        fill="#3b434f" />
    <path
        d="M302.07999 327.32593c-7.75522 6.73382 -25.27198 13.14071 -45.65329 13.14071 -20.38135 0 -37.89811 -6.40689 -45.65335 -13.14071 0 0 -0.79346 -2.18329 0.37069 -3.34745 1.1857 -1.18569 3.04264 -0.92764 3.04264 -0.92764 7.7471 6.73841 21.85089 12.29584 42.24002 12.29584 20.3891 0 34.49289 -5.55743 42.23999 -12.29584 0 0 1.89502 -0.70395 2.81558 0.21662 1.77304 1.77304 0.59772 4.05847 0.59772 4.05847z"
        fill="#3b434f" />
    <path
        d="M242.34668 350.70666c0 0 27.30667 0 27.30667 0 0 0 0 4.26667 0 4.26667 0 0 -27.30667 0 -27.30667 0 0 0 0 -4.26667 0 -4.26667z"
        fill="#3b434f" />
    <path
        d="M157.80722 233.31314c-0.0118 0.00067 -1.04761 -0.82654 -3.0036 -1.44238 -0.9776 -0.30725 -2.1926 -0.56 -3.57745 -0.62232 -0.34586 -0.0156 -0.70182 -0.0192 -1.06604 -0.009 -0.36423 0.0103 -0.73676 0.0347 -1.11542 0.0751 -0.75723 0.0809 -1.53931 0.22628 -2.3263 0.45266 -3.15115 0.90558 -6.36572 3.10733 -8.25363 7.65177 -0.94769 2.27234 -1.57287 5.13061 -1.73816 8.70682 -0.0413 0.89407 -0.054 1.833 -0.0359 2.81887 0.0182 0.98587 0.0671 2.01868 0.14887 3.1005 0.16342 2.16354 0.45853 4.52316 0.89822 7.09439 -0.01 -0.003 -0.41009 7.76999 2.36859 16.70114 2.61225 8.73196 8.88508 19.4584 20.46689 22.52359 -1.33203 -22.17938 -1.37341 -44.77451 -2.76611 -67.05127 0 0 0 0 0 0z"
        fill="#ffffff" />
    <path
        d="M159.12787 234.20727c0 0 -20.17639 -6.25167 -19.46634 14.49082 0 0 3.00391 30.07727 4.30835 32.84927 0 0 7.92383 17.51203 21.00098 18.28812 12.781 0.75851 0 0 0 0 0 0 0.15872 5.64453 0.15872 5.64453 0 0 -22.98465 -2.94699 -27.42398 -29.4346 0 0 -3.50388 -24.06271 -3.50388 -24.06271 0 0 -2.72061 -31.84464 23.66946 -23.7479 25.70929 7.88788 0 0 0 0 0 0 1.25669 5.97247 1.25669 5.97247"
        fill="#3b434f" />
    <path
        d="M152.46832 275.99481c0 0 -1.12915 0.85333 -2.09915 0.85333 -0.97 0 -2.08539 -0.85333 -2.08539 -0.85333 0 0 -2.08221 -20.98279 -2.08221 -20.98279 0 0 2.87292 -10.33346 15.06381 -4.87252 0 0 0.28818 5.99972 0.28818 5.99972 0 0 -10.69565 -3.79321 -10.47449 0.93021 0.21289 4.54654 1.38925 18.92538 1.38925 18.92538z"
        fill="#3b434f" />
    <path
        d="M353.81342 233.36212c0.0118 0.00067 1.05221 -0.82596 3.01675 -1.44141 0.9819 -0.30703 2.20221 -0.5596 3.59314 -0.62188 0.34735 -0.0155 0.70486 -0.0192 1.07071 -0.009 0.36581 0.0103 0.73996 0.0347 1.1203 0.0751 0.76053 0.0808 1.54605 0.22614 2.33649 0.45236 3.16494 0.90497 6.39358 3.10523 8.28976 7.64658 0.95184 2.27078 1.57977 5.1271 1.74576 8.7009 0.0415 0.89346 0.0542 1.83175 0.036 2.81695 -0.0183 0.9852 -0.0674 2.0173 -0.14954 3.09839 -0.16412 2.16208 -0.46054 4.52011 -0.90216 7.08957 0.01 -0.003 0.4119 7.76474 -2.37897 16.68982 -2.62365 8.72604 -8.92397 19.44519 -20.55651 22.5083 1.33786 -22.16434 1.37942 -44.74411 2.77823 -67.00577 0 0 0 0 0 0z"
        fill="#ffffff" />
    <path
        d="M352.4826 234.25568c0 0 20.26477 -6.24744 19.55161 14.48095 0 0 -3.01706 30.05686 -4.32724 32.82697 0 0 -7.95853 17.50015 -21.09293 18.27572 -12.837 0.758 0 0 0 0 0 0 -0.15942 5.64069 -0.15942 5.64069 0 0 23.0853 -2.94498 27.54407 -29.41461 0 0 3.51922 -24.04639 3.51922 -24.04639 0 0 2.73255 -31.82303 -23.77313 -23.73178 -25.82187 7.88254 0 0 0 0 0 0 -1.26218 5.96845 -1.26218 5.96845"
        fill="#3b434f" />
    <path
        d="M359.17133 276.01483c0 0 1.13409 0.85275 2.10833 0.85275 0.97425 0 2.09452 -0.85275 2.09452 -0.85275 0 0 2.09133 -20.96854 2.09133 -20.96854 0 0 -2.88549 -10.32644 -15.12979 -4.86923 0 0 -0.28943 5.99567 -0.28943 5.99567 0 0 10.7425 -3.79065 10.52036 0.92957 -0.21381 4.54345 -1.39532 18.91253 -1.39532 18.91253z"
        fill="#3b434f" />
    <path
        d="M283.3269 226.44095c0 0 25.54462 -14.6048 43.79288 1.48608 0 0 4.82688 0.74817 4.82688 0.74817 0 0 -6.18247 -22.49734 -51.19999 -7.86883 0 0 1.25333 4.19363 1.25333 4.19363m1 0c0 0 25.98724 -14.9263 43.11978 3.92703 0 0 8.82688 -0.25183 8.82688 -0.25183 0 0 -11.00864 -24.03201 -56.19999 -8.86883 0 0 4.25333 6.19363 4.25333 6.19363"
        fill="#3b434f" />
    <path
        d="M228.43835 226.52554c0 0 -25.45935 -14.47555 -43.64672 1.47293 0 0 -4.81077 0.74155 -4.81077 0.74155 0 0 6.16184 -22.29825 51.02912 -7.79919 0 0 -1.24915 4.15652 -1.24915 4.15652m-0.99664 0c0 0 -25.90054 -14.79422 -42.97589 3.89227 0 0 -8.79743 -0.2496 -8.79743 -0.2496 0 0 10.9719 -23.81934 56.01246 -8.79034 0 0 -4.23914 6.13882 -4.23914 6.13882"
        fill="#3b434f" />
    <path
        d="M350.58829 233.80002c0 0 39.38733 -103.34375 -81.89832 -126.88654 0 0 -25.3866 -1.37478 -45.21469 -25.006803 0 0 -14.16513 19.418393 -5.97174 34.268583 0 0 -10.42615 9.0954 -38.38983 1.85239 0 0 -4.23224 9.03989 -0.85312 19.44974 0 0 -35.17349 15.20871 -18.41129 83.23913 0.16059 0.65155 0.32587 1.30799 0.49604 1.96933 0 0 15.04934 -60.16061 25.5932 -61.12781 0 0 56.81387 32.61646 104.93222 -2.77853 0 0 23.75818 31.69751 52.89267 33.34244 0 0 5.26971 20.44104 6.82486 41.67807z"
        fill="#c1bfbd" />
    <path
        d="M353.28 234.65332c-1.18396 3.21246 -5.12 2.13333 -5.12 2.13333 -1.55514 -21.23703 -6.39999 -41.81332 -6.39999 -41.81332 -29.51782 -3.71936 -51.62668 -32 -51.62668 -32 -47.83389 32.875 -104.10666 1.28 -104.10666 1.28 -11.29831 9.36718 -22.61334 58.88 -22.61334 58.88 -0.17017 -0.66135 -5.81274 0.65155 -5.97333 0 -16.76221 -68.03043 17.49332 -87.04001 17.49332 -87.04001 -3.37912 -10.40985 2.13336 -21.33331 2.13336 -21.33331 27.96368 7.24301 36.69333 0.85333 36.69333 0.85333C206.3674 97.095734 222.72 78.06665 222.72 78.06665c19.8281 23.63202 46.93332 26.02667 46.93332 26.02667 111.54846 22.35407 91.53531 109.10141 83.62668 130.56zM267.09332 109.63998c0 0 -22.83023 -1.24212 -43.09332 -22.613308 0 0 -11.60672 15.443148 -3.41333 30.293338 0 0 -11.71631 11.50967 -39.67999 4.26666 0 0 -2.21164 5.79431 0 16.63998 0 0 -31.36057 16.19043 -20.48001 71.25336 0.13012 0.6583 -0.17017 -0.23468 0 0.42667 0 0 13.11782 -50.80783 25.17334 -51.20002 0 0 58.86248 33.32416 106.23999 -3.83999 0 0 25.05218 33.34173 54.18667 34.98666 0 0 2.52735 7.14548 5.54666 28.16001 0 0 25.55149 -87.40555 -84.48001 -108.37336z"
        fill="#3b434f" />
    <path
        d="M231.09155 104.94666c0.78223 0.015 0.78058 0.54733 1.00913 1.10171 0.34094 0.82706 0.6459 1.66888 1.04065 2.4552 0.59817 1.19156 1.212 2.37375 1.92364 3.46249 0.59839 0.9155 1.24753 1.79032 1.89209 2.65982 0.37222 0.50214 0.8219 0.94758 1.19834 1.44794 0.15014 0.19962 0.3511 0.36386 0.50454 0.56659 0.0525 0.0472 0.10514 0.0944 0.15769 0.14166 0.19293 0.2547 0.43817 0.45395 0.63067 0.70823 0.21024 0.20459 0.4205 0.40921 0.63071 0.6138 0.32828 0.32763 0.63623 0.69454 1.00912 0.97579 0.0788 0.0839 0.15769 0.16788 0.23652 0.25181 0.2962 0.2236 0.53823 0.4999 0.83566 0.72396 0.0473 0.0525 0.0946 0.10495 0.14191 0.15741 0.42968 0.32251 0.80239 0.71854 1.22985 1.03873 0.69416 0.51993 1.3505 1.07117 2.06556 1.57385 0.47424 0.33341 0.94201 0.7034 1.41906 1.03876 0.84918 0.59696 1.74668 1.13129 2.6174 1.69977 0.53003 0.34604 1.09797 0.60989 1.63984 0.9443 1.53347 0.94645 3.21212 1.75418 4.85635 2.58112 0.53119 0.26718 1.05985 0.48422 1.60828 0.724 0.34994 0.15298 0.72894 0.3338 1.0722 0.50363 0.18994 0.094 0.37369 0.13583 0.56763 0.22034 0.42038 0.18313 0.8739 0.37884 1.29294 0.56659 0.38751 0.17361 0.76641 0.28759 1.16677 0.44067 0.43155 0.16498 0.88913 0.37076 1.32447 0.5351 0.75656 0.28564 1.52221 0.53701 2.27053 0.81842 0.77741 0.29232 1.55552 0.48693 2.34934 0.75543 1.53836 0.52035 3.17603 0.90387 4.77756 1.38501 0.47934 0.14401 0.97876 0.21255 1.45059 0.34625 0.23538 0.0667 0.54025 0.0541 0.74106 0.15738 0.0818 0.0421 0.17462 0.13061 0.25229 0.18887 0.125 0.0937 0.22201 0.25052 0.31536 0.37772 0.14942 0.20361 0.30811 0.40457 0.42573 0.64529 0.12185 0.24939 0.15557 0.59568 0.22073 0.88135 0.0523 0.22934 -0.0204 0.51645 -0.0631 0.67676 -0.0359 0.13495 -0.0239 0.22809 -0.063 0.36197 -0.10187 0.34845 -0.25745 0.68631 -0.45727 0.94433 -0.20713 0.26743 -0.71702 0.27411 -1.10374 0.17313 -0.67645 -0.1767 -1.41864 -0.25235 -2.08129 -0.44071 -0.14167 -0.0403 -0.2544 -0.0225 -0.39417 -0.0629 -0.76849 -0.22226 -1.60757 -0.34906 -2.36514 -0.56659 -0.17291 -0.0497 -0.31857 -0.0427 -0.48877 -0.0944 -0.59799 -0.1817 -1.22073 -0.28562 -1.82904 -0.47214 -1.52484 -0.46759 -3.08658 -0.8562 -4.54102 -1.38501 -0.34009 -0.12363 -0.65588 -0.1875 -0.99334 -0.31476 -2.38706 -0.90018 -4.75675 -1.76761 -6.93769 -2.86441 -0.57391 -0.28863 -1.14346 -0.51703 -1.70291 -0.81842 -1.58835 -0.85571 -3.13263 -1.7417 -4.63562 -2.67554 -0.19748 -0.12271 -0.38977 -0.28027 -0.5834 -0.40921 -0.87311 -0.58142 -1.71073 -1.17318 -2.55432 -1.77847 -0.85102 -0.6106 -1.60944 -1.34186 -2.44397 -1.96731 -0.176 -0.1319 -0.32468 -0.30515 -0.50455 -0.44068 -0.0525 -0.0577 -0.10513 -0.11542 -0.15769 -0.17313 -0.195 -0.14715 -0.34561 -0.34414 -0.53607 -0.48788 -0.45685 -0.34479 -0.84298 -0.79419 -1.24563 -1.19614 -0.38001 -0.37936 -0.79346 -0.7496 -1.11951 -1.18039 -0.0736 -0.0682 -0.14716 -0.13641 -0.22073 -0.20462 -0.21183 -0.27978 -0.48548 -0.51037 -0.69376 -0.78692 -0.36356 -0.48264 -0.79153 -0.91687 -1.15103 -1.40073 -0.44708 -0.60168 -0.90781 -1.19699 -1.34024 -1.80993 -0.43296 -0.61365 -0.80908 -1.24717 -1.21408 -1.88862 -1.09723 -1.7377 -1.99042 -3.63327 -2.82239 -5.65014 -0.30179 -0.7316 -0.50556 -1.51279 -0.75684 -2.28211 -0.17309 -0.52994 -0.25692 -1.09985 -0.40997 -1.63681 -0.0399 -0.14013 -0.0254 -0.2507 -0.0631 -0.39346 -0.081 -0.30667 -0.17316 -0.68933 -0.0631 -1.00726 0.0493 -0.14225 0.25174 -0.34421 0.3942 -0.39347 0.0992 -0.0343 0.19592 -0.008 0.26803 -0.063zm-7.74182 23.60784c0.56082 0.003 0.81165 0.41574 1.05643 0.73972 0.25366 0.33572 0.59546 0.60611 0.85144 0.9443 0.2102 0.20984 0.42047 0.41971 0.63071 0.62955 0.14321 0.18927 0.32257 0.33774 0.48876 0.50363 0.17133 0.17099 0.32502 0.3563 0.52033 0.50364 0.18921 0.18884 0.37845 0.37774 0.56766 0.56658 0.19424 0.14664 0.34524 0.34388 0.53607 0.48789 0.5903 0.44549 1.09436 1.00549 1.68713 1.44797 0.62845 0.46908 1.21933 0.99615 1.86057 1.44793 0.83996 0.59183 1.67761 1.19291 2.53854 1.76273 0.44019 0.29132 0.89087 0.53567 1.34024 0.81839 0.34357 0.21616 0.70047 0.46414 1.05643 0.66104 1.47818 0.81769 2.97485 1.62058 4.50949 2.39224 1.21521 0.61109 2.49786 1.10623 3.75265 1.66831 0.38688 0.17328 0.76651 0.28863 1.16678 0.44067 0.90351 0.34311 1.85358 0.69241 2.77509 1.03873 0.87118 0.32742 1.79691 0.55127 2.68048 0.84988 0.14432 0.0488 0.26715 0.0432 0.40994 0.0945 0.45691 0.16401 0.97479 0.26645 1.45059 0.40918 0.23926 0.0718 0.47663 0.0707 0.70954 0.15741 0.51004 0.18988 1.15356 0.7638 1.34024 1.27481 0.32345 0.88532 -0.0345 1.89267 -0.44147 2.47095 -0.12286 0.17453 -0.30429 0.46115 -0.52035 0.53513 -0.34046 0.11654 -0.69794 -0.005 -1.0091 -0.0944 -0.40228 -0.11518 -0.78741 -0.1323 -1.18255 -0.25181 -0.73014 -0.22082 -1.49003 -0.34149 -2.22324 -0.56658 -1.53531 -0.47135 -3.06564 -0.89505 -4.52524 -1.44794 -3.37936 -1.28015 -6.4975 -2.78189 -9.36587 -4.56421 -1.19074 -0.73987 -2.31943 -1.5737 -3.43732 -2.39224 -0.39804 -0.29148 -0.75824 -0.65021 -1.15103 -0.94431 -0.53839 -0.40317 -0.99631 -0.88849 -1.52945 -1.29059 -0.0578 -0.0629 -0.11563 -0.12591 -0.17343 -0.18884 -0.10913 -0.0969 -0.22806 -0.1806 -0.33112 -0.28329 -0.0841 -0.0892 -0.16818 -0.17838 -0.25229 -0.26755 -0.20105 -0.1517 -0.35968 -0.34329 -0.53607 -0.51938 -0.17129 -0.17102 -0.35696 -0.3244 -0.50458 -0.51938 -0.1156 -0.11017 -0.23126 -0.22037 -0.34686 -0.3305 -0.38657 -0.51026 -0.87613 -0.93119 -1.26141 -1.44797 -0.0909 -0.12189 -0.22406 -0.22479 -0.31534 -0.34622 -0.37052 -0.49283 -0.77939 -0.96042 -1.13526 -1.46369 -0.40527 -0.57315 -0.82583 -1.15018 -1.19833 -1.74701 -0.14676 -0.2351 -0.25888 -0.47543 -0.40997 -0.70822 -0.16571 -0.25534 -0.29135 -0.52359 -0.44147 -0.80267 -0.089 -0.16547 -0.21994 -0.34925 -0.28381 -0.5351 -0.0649 -0.18878 -0.0855 -0.55426 0.0157 -0.72397 0.0691 -0.11581 0.23148 -0.29794 0.36268 -0.34625 0.0985 -0.0363 0.19549 -0.008 0.26803 -0.063zM212.754 140.04364c0.63321 0.008 0.79251 0.47467 1.05642 0.84988 0.42466 0.60376 0.91376 1.15982 1.35599 1.74698 0.35254 0.46808 0.81275 0.85437 1.16681 1.32205 0.13663 0.13114 0.27332 0.26233 0.40994 0.39347 0.19623 0.25915 0.4972 0.55963 0.75684 0.75543 0.0525 0.0577 0.10513 0.11545 0.15768 0.17313 0.12912 0.12887 0.26273 0.25097 0.40995 0.362 0.0683 0.0734 0.13665 0.14691 0.20498 0.22033 0.35031 0.26447 0.6438 0.60556 0.99335 0.86563 0.83606 0.62198 1.63211 1.30045 2.49127 1.90436 1.86218 1.30896 3.91361 2.40173 6.02317 3.4625 0.68942 0.34664 1.42282 0.6036 2.11282 0.9443 0.29425 0.14526 0.59619 0.21817 0.89877 0.34625 0.82697 0.35007 1.71372 0.65512 2.57007 0.97577 1.18524 0.44379 2.44193 0.72244 3.65805 1.13318 0.42615 0.14392 0.88062 0.20859 1.29294 0.34625 0.36673 0.12244 0.74237 0.14243 1.11951 0.25183 0.74704 0.21671 1.57943 0.3368 2.34933 0.5351 0.44443 0.11447 0.8949 0.14145 1.32446 0.25183 0.47989 0.12326 0.98249 0.1369 1.45063 0.2518 0.1051 0.0105 0.21023 0.021 0.31533 0.0315 0.48111 0.12222 1.04029 0.13552 1.52945 0.2518 0.20874 0.0496 0.38889 0.0139 0.59916 0.063 0.68347 0.15943 1.46359 0.12696 2.16015 0.2833 0.19879 0.0446 0.40567 0.0232 0.58341 0.063 0.0631 0 0.12612 0 0.1892 0 0.24 0.0534 0.54557 0.0411 0.78837 0.0944 0.0683 0 0.13665 0 0.20498 0 0.39694 0.0875 0.87705 0.0383 1.27716 0.12591 0.0893 0 0.17871 0 0.26804 0 0.50992 0.11142 1.12286 0.0139 1.63983 0.12592 0.19971 0.005 0.39944 0.0105 0.59915 0.0157 0.11316 0.0245 0.29291 -0.013 0.42572 0.0157 0.35178 0.076 0.80542 0.009 1.16681 0.063 0.21362 0.0319 0.47183 -0.0254 0.66223 0.0157 0.16788 0.0362 0.38785 -0.0163 0.53607 0.0157 0.40992 0 0.81998 0 1.22989 0 0.97031 0 1.91782 -0.0271 2.85392 -0.0315 0.44308 -0.002 0.92572 -0.0991 1.2929 0.0315 0.20749 0.0738 0.39917 0.25571 0.56763 0.37772 0.37903 0.27451 0.7352 0.66736 0.91452 1.13318 0.0547 0.14191 0.05 0.26736 0.0946 0.42493 0.0715 0.25241 0.17437 0.64984 0.0946 0.99154 -0.0519 0.22226 -0.0792 0.4914 -0.15768 0.70822 -0.12091 0.33426 -0.44318 0.43229 -0.81989 0.51938 -0.13666 0.005 -0.27332 0.0105 -0.40997 0.0157 -0.58231 0.12704 -1.29114 0.0151 -1.87632 0.14163 -0.11273 0.0244 -0.26956 -0.004 -0.36267 0.0157 -0.2207 0.005 -0.44149 0.0105 -0.66223 0.0157 -0.21411 0.0461 -0.48367 -0.0205 -0.72528 0.0315 -0.20209 0.0435 -0.4491 0.0315 -0.67801 0.0315 -0.0841 0 -0.16818 0 -0.25229 0 -0.19503 0.0419 -0.46838 0.0314 -0.678 0.0315 -0.30478 0 -0.60969 0 -0.91449 0 -0.284 0.0607 -0.6792 0.0157 -0.99335 0.0157 -0.26029 0 -0.5885 0.0341 -0.81992 -0.0157 -0.17868 0 -0.35742 0 -0.5361 0 -0.37314 0.00003 -0.74118 -0.00006 -1.08795 -0.0315 -0.17868 0 -0.35742 0 -0.5361 0 -0.30631 -0.0666 -0.70554 0.003 -1.0091 -0.063 -0.12088 0 -0.24179 0 -0.36267 0 -0.22205 -0.0485 -0.52182 -0.0155 -0.74106 -0.063 -0.1051 0 -0.21023 0 -0.31537 0 -0.16864 -0.0371 -0.41464 -0.0262 -0.58337 -0.063 -0.0841 0 -0.16821 0 -0.25229 0 -0.58441 -0.12885 -1.25705 -0.061 -1.82901 -0.18887 -0.15768 -0.0105 -0.31537 -0.021 -0.47305 -0.0315 -0.74204 -0.16876 -1.56378 -0.14297 -2.28626 -0.31479 -0.1965 -0.0467 -0.35812 -0.0156 -0.55188 -0.063 -0.67169 -0.1641 -1.41159 -0.20935 -2.06552 -0.37772 -0.10785 -0.0278 -0.17612 -0.003 -0.28381 -0.0315 -0.30933 -0.0808 -0.67191 -0.13352 -0.9776 -0.22034 -0.14228 -0.0404 -0.25208 -0.0221 -0.3942 -0.063 -1.0628 -0.30603 -2.16961 -0.46609 -3.21655 -0.78692 -1.8541 -0.56818 -3.728 -1.07648 -5.40823 -1.82569 -0.38056 -0.16967 -0.76007 -0.26806 -1.13526 -0.44067 -0.66385 -0.30539 -1.34872 -0.58377 -2.00247 -0.91284 -1.02298 -0.51493 -2.0231 -1.05658 -3.0116 -1.60535 -0.69528 -0.38599 -1.36428 -0.85751 -2.01822 -1.29056 -0.53677 -0.35544 -1.05511 -0.70349 -1.57675 -1.07022 -0.51327 -0.36084 -0.9924 -0.7753 -1.49789 -1.14889 -0.51416 -0.38001 -0.95493 -0.85798 -1.4664 -1.24335 -0.19425 -0.14639 -0.3584 -0.38913 -0.55185 -0.53513 -0.47711 -0.36001 -0.87235 -0.8392 -1.29294 -1.25906 -1.7952 -1.79218 -3.31982 -3.85135 -4.68292 -6.0751 -0.31464 -0.51325 -0.54352 -1.04868 -0.81992 -1.60532 -0.12591 -0.2536 -0.25778 -0.59592 -0.12613 -0.94434 0.042 -0.11105 0.26715 -0.33581 0.37842 -0.37771 0.0913 -0.0344 0.19876 -0.0109 0.26804 -0.063zm104.34906 15.51822c0.57403 0.006 0.7511 0.38739 0.99334 0.72397 0.23932 0.33249 0.51117 0.64447 0.75684 0.9758 0.52142 0.70321 1.17624 1.30301 1.70291 1.99881 0.18378 0.24279 0.44452 0.43084 0.63068 0.67675 0.0736 0.0682 0.14719 0.13639 0.22076 0.20459 0.25595 0.33805 0.60019 0.61487 0.89874 0.91285 0.25751 0.25702 0.51508 0.51416 0.77262 0.77118 0.40524 0.30587 0.73337 0.73547 1.13525 1.03875 0.22965 0.17331 0.4202 0.39679 0.64646 0.56659 0.74551 0.55942 1.423 1.2103 2.1759 1.7627 1.13415 0.83212 2.27017 1.67187 3.4531 2.45523 1.77847 1.17776 3.66635 2.24118 5.58166 3.27362 1.08795 0.58645 2.22836 1.08462 3.34271 1.63681 0.39621 0.19632 0.81174 0.34387 1.19834 0.53509 0.14324 0.0709 0.28244 0.0866 0.42572 0.15741 0.61667 0.30475 1.30386 0.53553 1.93939 0.81839 0.16339 0.0727 0.30542 0.0939 0.47302 0.15738 0.61865 0.23462 1.27338 0.4737 1.90787 0.70825 0.35669 0.13184 0.77997 0.18302 1.1037 0.36197 0.81778 0.45206 1.5722 1.42102 1.15103 2.70703 -0.1499 0.45777 -0.40402 0.81376 -0.66223 1.16468 -0.1781 0.24203 -0.40076 0.33829 -0.72532 0.44067 -0.0794 0.025 -0.43316 -0.10004 -0.50454 -0.12591 -0.43451 -0.15757 -0.87146 -0.23236 -1.30869 -0.37772 -2.25885 -0.75104 -4.42865 -1.54572 -6.51196 -2.45523 -3.3725 -1.47229 -6.39481 -3.35086 -9.23975 -5.35111 -0.82766 -0.5819 -1.57476 -1.26998 -2.38089 -1.87289 -0.23632 -0.17676 -0.43893 -0.40216 -0.678 -0.58231 -0.0473 -0.0525 -0.0946 -0.10495 -0.14191 -0.15737 -0.32108 -0.24213 -0.57904 -0.54578 -0.89874 -0.78696 -0.14188 -0.14685 -0.28382 -0.29379 -0.42573 -0.44068 -0.16091 -0.12139 -0.28494 -0.26867 -0.42571 -0.40918 -0.14075 -0.14053 -0.28834 -0.26431 -0.40995 -0.42495 -0.0999 -0.0944 -0.19974 -0.18888 -0.29959 -0.2833 -0.18051 -0.18036 -0.36587 -0.3782 -0.52032 -0.58233 -0.0946 -0.0944 -0.18921 -0.18888 -0.28382 -0.2833 -0.20285 -0.26794 -0.46258 -0.49039 -0.66223 -0.75543 -0.52069 -0.69122 -1.08816 -1.33191 -1.5925 -2.04602 -0.45306 -0.64148 -0.95093 -1.27799 -1.37179 -1.95157 -0.53916 -0.86298 -1.03278 -1.75314 -1.51367 -2.67557 -0.21116 -0.40503 -0.45069 -0.91256 -0.59916 -1.35351 -0.066 -0.19599 -0.0854 -0.54709 0.0158 -0.72397 0.0689 -0.12048 0.22818 -0.29559 0.36264 -0.34625 0.0913 -0.0344 0.19882 -0.0108 0.26804 -0.063z"
        fill="#3b434f"
        fill-opacity="0.2" />
    <path
        d="M263.89334 274.33334c0.49771 0 0.99561 0 1.49332 0 3.08746 4.19297 4.34357 10.63642 5.97332 16.21332 0.50507 1.7283 0.0151 4.75131 -0.42666 5.97333 -1.61777 4.47552 -6.69763 4.3952 -10.87998 6.39999 -1.12323 0.53845 -1.95874 1.46784 -3.41333 1.7067 -0.9483 -0.83533 -2.09329 -0.99939 -2.56002 -2.34668 -1.15232 -1.58673 0.33282 -2.57761 1.49334 -3.20001 2.10624 -1.12958 8.60816 -2.24289 9.38666 -4.26667 0.96323 -1.09573 0.32275 -4.39016 0 -5.54666 -0.8266 -2.96216 -1.22336 -5.43512 -2.34665 -8.10666 -0.74615 -1.7745 -2.05618 -3.6455 -1.28 -5.76001 0.64319 -0.27618 2.0333 -0.59021 2.56 -1.06665z"
        fill="#3b434f" />
    <path
        d="M209.06668 238.06668c4.71283 0 8.53333 3.8205 8.53333 8.53333 0 4.71283 -3.8205 8.53332 -8.53333 8.53332 -4.71283 0 -8.53336 -3.82049 -8.53336 -8.53332 0 -4.71283 3.82053 -8.53333 8.53336 -8.53333z"
        fill="#3b434f" />
    <path
        d="M303.78665 238.06668c4.71283 0 8.53333 3.8205 8.53333 8.53333 0 4.71283 -3.8205 8.53332 -8.53333 8.53332 -4.7128 0 -8.53332 -3.82049 -8.53332 -8.53332 0 -4.71283 3.82052 -8.53333 8.53332 -8.53333z"
        fill="#3b434f" />
    <path
        d="M307.62668 269.64001c5.89102 0 10.66666 4.77564 10.66666 10.66666 0 5.89102 -4.77564 10.66666 -10.66666 10.66666 -5.89105 0 -10.66666 -4.77564 -10.66666 -10.66666 0 -5.89102 4.77561 -10.66666 10.66666 -10.66666z"
        fill="#f5f3ef" />
    <path
        d="M204.37335 269.64001c5.89102 0 10.66666 4.77564 10.66666 10.66666 0 5.89102 -4.77564 10.66666 -10.66666 10.66666 -5.89105 0 -10.66665 -4.77564 -10.66665 -10.66666 0 -5.89102 4.7756 -10.66666 10.66665 -10.66666z"
        fill="#f4f3ef" />
</svg>