<svg xmlns="http://www.w3.org/2000/svg"
    width="512"
    height="512"
    viewBox="0 0 512 512">
    <path
        d="M112 502c0 0 -11.98895 -92.45706 80.42667 -100.81332 0 0 22.18667 0 22.18667 0 0 0 7.26166 -4.69333 12.37332 -4.69333 0 0 0 -13.22669 0 -13.22669 0 0 27.69333 13.80835 56.32001 0.42667 0 0 0 11.94668 0 11.94668 0 0 1.21668 -2.28668 13.65332 5.97333 0 0 33.28 0 33.28 0 0 0 70.76001 8.72852 70.76001 100.38666 0 0 -289 0 -289 0z"
        fill="#ffffff" />
    <path
        d="M398.26193 503.58667c0 0 -284.51639 0 -284.51639 0 0 0 -5.51788 0 -5.51788 0 0 0 1.37735 -23.52982 1.37735 -23.52982 2.6893 -45.94223 38.88687 -81.00351 80.31 -81.00351 0 0 28.48364 0 28.48364 0 -1.84784 1.52832 -3.202 3.11356 -4.17587 4.69333 0 0 -21.79306 0 -21.79306 0 -39.92337 0 -74.8104 33.74842 -77.40235 77.97034 0 0 -0.95672 16.323 -0.95672 16.323 0 0 283.43951 0 283.43951 0 0 0 -0.53006 -16.323 -0.53006 -16.323 -2.59195 -44.22192 -37.47897 -77.97034 -77.40237 -77.97034 0 0 -21.81162 0 -21.81162 0 -0.8341 -1.56814 -2.02017 -3.15326 -3.67608 -4.69333 0 0 27.74939 0 27.74939 0 41.42312 0 77.62069 35.06128 80.30999 81.00351 0 0 1.37735 23.52982 1.37735 23.52982 0 0 -5.26483 0 -5.26483 0zm-112.61151 -99.84c0 0 -1.49042 0 -1.49042 0 0 0 0 -4.69333 0 -4.69333 0 0 1.65601 0 1.65601 0 -0.099 1.21979 -0.16263 2.75724 -0.16559 4.69333zm-60.01114 -4.69333c0 0 1.77405 0 1.77405 0 0 0 0 4.69333 0 4.69333 0 0 -1.53326 0 -1.53326 0 -0.0229 -1.99313 -0.11426 -3.52261 -0.24079 -4.69333z"
        fill="#3b434f" />
    <path
        d="M269.22665 464.33334c1.64951 0 2.9867 1.33716 2.9867 2.98667 0 1.64947 -1.33719 2.98666 -2.9867 2.98666 -1.64947 0 -2.98666 -1.33719 -2.98666 -2.98666 0 -1.64951 1.33719 -2.98667 2.98666 -2.98667z"
        fill="#3b434f" />
    <path
        d="M269.22665 483.95999c1.64951 0 2.9867 1.33719 2.9867 2.98667 0 1.6495 -1.33719 2.98666 -2.9867 2.98666 -1.64947 0 -2.98666 -1.33716 -2.98666 -2.98666 0 -1.64948 1.33719 -2.98667 2.98666 -2.98667z"
        fill="#3b434f" />
    <path
        d="M303.78665 424.22668c0 0 -21.75998 32.42667 -21.75998 32.42667 -5.91943 -18.34729 -23.04001 -11.52002 -23.04001 -11.52002 0 0 0 54.18817 0 54.18817 0 1.41303 -1.33719 2.5585 -2.98666 2.5585 -1.64948 0 -2.98666 -1.14547 -2.98666 -2.5585 0 0 0 -54.18945 0 -54.18945 -0.13852 -0.0549 -17.12287 -6.75113 -23.01175 11.5213 0 0 -21.73636 -32.42667 -21.73636 -32.42667 0 0 -8.40808 -21.3767 17.04812 -30.72 0 -9.32263 0 -9.81335 0 -9.81335 0 0 4.8136 0 4.8136 0 0 0 0 17.82382 0 30.88373 0.61798 5.31628 4.27835 20.46423 25.87305 25.43628 21.61816 -4.97205 25.28253 -20.12 25.90118 -25.43628 0 -13.05991 0 -30.88373 0 -30.88373 0 0 4.81882 0 4.81882 0 0 0 0 0.49072 0 9.81335 25.48386 9.3433 17.06665 30.72 17.06665 30.72zm-74.03738 2.87052c-1.16025 -1.31394 -2.83139 -4.57721 -2.83139 -4.57721 0 0 -1.60453 -5.33997 -1.60453 -7.67999 0 -2.90635 0 -6.72135 0 -10.82227 -0.36288 -4.88095 -1.27859 -4.96439 -1.27859 -4.96439 -18.99378 9.35523 -10.65509 23.89332 -10.65509 23.89332 0 0 15.76953 24.74667 15.76953 24.74667 6.15811 -10.43448 12.7861 -8.53333 12.7861 -8.53333 -5.85196 -2.98257 -9.68988 -7.61151 -12.18603 -12.0628zM288 399.05334c0 0 -0.91672 0.0834 -1.28 4.96439 0 4.10092 0 7.91592 0 10.82227 0 2.34002 -1.60626 7.67999 -1.60626 7.67999 0 0 -1.67298 3.26327 -2.83447 4.57721 -2.49887 4.45129 -6.34098 9.08023 -12.19928 12.0628 0 0 6.63519 -1.90115 12.80001 8.53333 0 0 15.78666 -24.74667 15.78666 -24.74667 0 0 8.34774 -14.53809 -10.66666 -23.89332z"
        fill="#3b434f" />
    <path
        d="M256.00134 123.99872c53.29193 0 93.98758 29.97027 93.98758 101.70172 0 0 -2.32406 61.96298 -2.32406 61.96298 -14.19877 79.54935 -49.88538 98.33991 -91.66352 98.33991 -41.78082 0 -79.09945 -19.57734 -91.66354 -98.33991 0 0 -2.32407 -61.96298 -2.32407 -61.96298 0 -71.42191 40.69568 -101.70172 93.98761 -101.70172z"
        fill="#ffffff" />
    <path
        d="M352.12158 287.30807c-14.8891 82.90799 -52.31082 102.49192 -96.12018 102.49192 -43.81216 0 -82.94525 -20.40387 -96.12021 -102.49192 0 0 -2.43704 -64.5791 -2.43704 -64.5791 0 -74.43741 42.67429 -105.99566 98.55725 -105.99566 55.88297 0 98.55722 31.23565 98.55722 105.99566 0 0 -2.43704 64.5791 -2.43704 64.5791zm-96.12027 -165.0281c-52.24664 0 -92.1441 30.27621 -92.1441 101.6896 0 0 2.27847 61.95557 2.27847 61.95557 12.31766 78.7532 48.90433 98.32819 89.86563 98.32819 40.95868 0 75.94535 -18.78833 89.8656 -98.32819 0 0 2.27848 -61.95557 2.27848 -61.95557 0 -71.7229 -39.89744 -101.6896 -92.14408 -101.6896z"
        fill="#3b434f" />
    <path
        d="M302.07999 325.32593c-7.75522 6.73382 -25.27198 13.14071 -45.65329 13.14071 -20.38135 0 -37.89811 -6.40689 -45.65335 -13.14071 0 0 -0.79346 -2.18329 0.37069 -3.34745 1.1857 -1.18569 3.04264 -0.92764 3.04264 -0.92764 7.7471 6.73841 21.85089 12.29584 42.24002 12.29584 20.3891 0 34.49289 -5.55743 42.23999 -12.29584 0 0 1.89502 -0.70395 2.81558 0.21662 1.77304 1.77304 0.59772 4.05847 0.59772 4.05847z"
        fill="#3b434f" />
    <path
        d="M242.34668 348.70666c0 0 27.30667 0 27.30667 0 0 0 0 4.26667 0 4.26667 0 0 -27.30667 0 -27.30667 0 0 0 0 -4.26667 0 -4.26667z"
        fill="#3b434f" />
    <path
        d="M157.80722 231.31314c-0.0118 0.00067 -1.04761 -0.82654 -3.0036 -1.44238 -0.9776 -0.30725 -2.1926 -0.56 -3.57745 -0.62232 -0.34586 -0.0156 -0.70182 -0.0192 -1.06604 -0.009 -0.36423 0.0103 -0.73676 0.0347 -1.11542 0.0751 -0.75723 0.0809 -1.53931 0.22628 -2.3263 0.45266 -3.15115 0.90558 -6.36572 3.10733 -8.25363 7.65177 -0.94769 2.27234 -1.57287 5.13061 -1.73816 8.70682 -0.0413 0.89407 -0.054 1.833 -0.0359 2.81887 0.0182 0.98587 0.0671 2.01868 0.14887 3.1005 0.16342 2.16354 0.45853 4.52316 0.89822 7.09439 -0.01 -0.003 -0.41009 7.76999 2.36859 16.70114 2.61225 8.73196 8.88508 19.4584 20.46689 22.52359 -1.33203 -22.17938 -1.37341 -44.77451 -2.76611 -67.05127 0 0 0 0 0 0z"
        fill="#ffffff" />
    <path
        d="M159.12787 232.20727c0 0 -20.17639 -6.25167 -19.46634 14.49082 0 0 3.00391 30.07727 4.30835 32.84927 0 0 7.92383 17.51203 21.00098 18.28812 12.781 0.75851 0 0 0 0 0 0 0.15872 5.64453 0.15872 5.64453 0 0 -22.98465 -2.94699 -27.42398 -29.4346 0 0 -3.50388 -24.06271 -3.50388 -24.06271 0 0 -2.72061 -31.84464 23.66946 -23.7479 25.70929 7.88788 0 0 0 0 0 0 1.25669 5.97247 1.25669 5.97247"
        fill="#3b434f" />
    <path
        d="M152.46832 273.99481c0 0 -1.12915 0.85333 -2.09915 0.85333 -0.97 0 -2.08539 -0.85333 -2.08539 -0.85333 0 0 -2.08221 -20.98279 -2.08221 -20.98279 0 0 2.87292 -10.33346 15.06381 -4.87252 0 0 0.28818 5.99972 0.28818 5.99972 0 0 -10.69565 -3.79321 -10.47449 0.93021 0.21289 4.54654 1.38925 18.92538 1.38925 18.92538z"
        fill="#3b434f" />
    <path
        d="M352.4826 232.25568c0 0 20.26477 -6.24744 19.55161 14.48095 0 0 -3.01706 30.05686 -4.32724 32.82697 0 0 -7.95853 17.50015 -21.09293 18.27572 -12.837 0.758 0 0 0 0 0 0 -0.15942 5.64069 -0.15942 5.64069 0 0 23.0853 -2.94498 27.54407 -29.41461 0 0 3.51922 -24.04639 3.51922 -24.04639 0 0 2.73255 -31.82303 -23.77313 -23.73178 -25.82187 7.88254 0 0 0 0 0 0 -1.26218 5.96845 -1.26218 5.96845"
        fill="#3b434f" />
    <path
        d="M359.17133 274.01483c0 0 1.13409 0.85275 2.10833 0.85275 0.97425 0 2.09452 -0.85275 2.09452 -0.85275 0 0 2.09133 -20.96854 2.09133 -20.96854 0 0 -2.88549 -10.32644 -15.12979 -4.86923 0 0 -0.28943 5.99567 -0.28943 5.99567 0 0 10.7425 -3.79065 10.52036 0.92956 -0.21381 4.54346 -1.39532 18.91254 -1.39532 18.91254z"
        fill="#3b434f" />
    <path
        d="M352.34253 231.3494c0.0118 0.0007 1.04877 -0.83036 3.00696 -1.44904 0.9787 -0.30869 2.19504 -0.56259 3.58145 -0.62521 0.34622 -0.0157 0.70257 -0.0194 1.06723 -0.009 0.36462 0.0104 0.73755 0.0349 1.11664 0.0755 0.75808 0.0813 1.54101 0.22733 2.32892 0.45478 3.15466 0.90976 6.37283 3.1217 8.26281 7.68719 0.94879 2.28287 1.57465 5.15436 1.74012 8.74713 0.0414 0.8982 0.054 1.84146 0.0359 2.83191 -0.0181 0.99045 -0.0672 2.02805 -0.14901 3.11484 -0.16361 2.17358 -0.45902 4.5441 -0.8992 7.12723 0.01 -0.003 0.41052 7.806 -2.37125 16.77847 -2.61517 8.7724 -8.89499 19.54849 -20.48975 22.6279 1.3335 -22.2821 1.37494 -44.98181 2.7692 -67.36172 0 0 0 0 0 0z"
        fill="#ffffff" />
    <path
        d="M352.92267 232.25565c0 0 20.26474 -6.24741 19.5516 14.48101 0 0 -3.01709 30.0568 -4.32721 32.82697 0 0 -7.95852 17.50009 -21.09298 18.27566 -12.83698 0.75806 0 0 0 0 0 0 -0.1594 5.64072 -0.1594 5.64072 0 0 23.08533 -2.94498 27.5441 -29.41464 0 0 3.51923 -24.04636 3.51923 -24.04636 0 0 2.73251 -31.823 -23.77317 -23.73178 -25.82186 7.88251 0 0 0 0 0 0 -1.26217 5.96842 -1.26217 5.96842"
        fill="#3b434f" />
    <path
        d="M359.61139 274.01483c0 0 4.20285 0 4.20285 0 0 0 2.09131 -20.96857 2.09131 -20.96857 0 0 -2.88547 -10.32644 -15.12976 -4.8692 0 0 -0.28943 5.99567 -0.28943 5.99567 0 0 10.74249 -3.79065 10.52035 0.92959 -0.2138 4.54343 -1.39532 18.91251 -1.39532 18.91251z"
        fill="#3b434f" />
    <path
        d="M263.89334 272.33334c0.49771 0 0.99561 0 1.49332 0 3.08746 4.19297 4.34357 10.63642 5.97332 16.21332 0.50507 1.7283 0.0151 4.75131 -0.42666 5.97333 -1.61777 4.47552 -6.69763 4.3952 -10.87998 6.39999 -1.12323 0.53845 -1.95874 1.46784 -3.41333 1.7067 -0.9483 -0.83533 -2.09329 -0.99939 -2.56002 -2.34668 -1.15232 -1.58673 0.33282 -2.57761 1.49334 -3.20001 2.10624 -1.12958 8.60816 -2.24289 9.38666 -4.26667 0.96323 -1.09573 0.32275 -4.39016 0 -5.54666 -0.8266 -2.96216 -1.22336 -5.43512 -2.34665 -8.10666 -0.74615 -1.7745 -2.05618 -3.6455 -1.28 -5.76001 0.64319 -0.27618 2.0333 -0.59021 2.56 -1.06665z"
        fill="#3b434f" />
    <path
        d="M209.06668 236.06668c4.71283 0 8.53333 3.8205 8.53333 8.53333 0 4.71283 -3.8205 8.53332 -8.53333 8.53332 -4.71283 0 -8.53336 -3.82049 -8.53336 -8.53332 0 -4.71283 3.82053 -8.53333 8.53336 -8.53333z"
        fill="#3b434f" />
    <path
        d="M303.78665 236.06668c4.71283 0 8.53333 3.8205 8.53333 8.53333 0 4.71283 -3.8205 8.53332 -8.53333 8.53332 -4.7128 0 -8.53332 -3.82049 -8.53332 -8.53332 0 -4.71283 3.82052 -8.53333 8.53332 -8.53333z"
        fill="#3b434f" />
    <path
        d="M307.62668 267.64001c5.89102 0 10.66666 4.77564 10.66666 10.66666 0 5.89102 -4.77564 10.66666 -10.66666 10.66666 -5.89105 0 -10.66666 -4.77564 -10.66666 -10.66666 0 -5.89102 4.77561 -10.66666 10.66666 -10.66666z"
        fill="#edf1f1" />
    <path
        d="M204.37335 267.64001c5.89102 0 10.66666 4.77564 10.66666 10.66666 0 5.89102 -4.77564 10.66666 -10.66666 10.66666 -5.89105 0 -10.66665 -4.77564 -10.66665 -10.66666 0 -5.89102 4.7756 -10.66666 10.66665 -10.66666z"
        fill="#edf1f1" />
    <path
        d="M165.63724 216.41754c0 0 28.0932 -14.24332 24.9881 -63.22226 0 0 44.94052 49.2414 153.268 34.23139 0 0 5.12 46.07998 5.12 46.07998 0 0 63.68188 -117.99987 -50.34668 -145.066648 -111.59137 -26.488281 -112.87775 43.396428 -112.87775 43.396428 0 0 -34.22159 -5.1138 -37.0791 28.19369 -2.85749 33.3075 7.45019 68.35654 7.45019 68.35654 0 0 8.53333 6.82666 8.53333 6.82666 0 0 0.94391 -18.79578 0.94391 -18.79578z"
        fill="#c1bfbd" />
    <path
        d="M348.16 238.62665c0 0 -6.39999 -48.21332 -6.39999 -48.21332C233.43253 203.5578 193.612 159.59528 193.612 159.59528c-1.61267 48.97894 -25.41477 58.10226 -25.41477 58.10226 0 0 -1.79724 19.64911 -1.79724 19.64911 0 0 -11.94665 -6.82666 -11.94665 -6.82666 0 0 -11.37979 -37.16519 -8.7302 -70.48987 2.85752 -35.93915 37.50577 -30.75369 37.50577 -30.75369 0 0 4.11279 -71.836336 115.43775 -44.249758C420.1619 115.13345 348.16 238.62665 348.16 238.62665ZM297.81332 91C185.90774 65.872345 188.16 135.79999 188.16 135.79999c0 0 -33.60601 -9.07736 -36.46353 24.23013 -2.85748 33.3075 6.59687 66.22321 6.59687 66.22321 0 0 3.83999 2.98666 3.83999 2.98666 0 0 0.51724 -14.52911 0.51724 -14.52911 0 0 28.14096 -9.67221 24.9881 -67.91559 0 0 40.16275 52.61917 158.81467 37.64471 0 0 4.26666 38.4 4.26666 38.4 0 0 51.87689 -108.31156 -52.90668 -131.84z"
        fill="#3b434f" />
    <path
        d="M283.3269 224.44095c0 0 25.54462 -14.6048 43.79288 1.48608 0 0 4.82688 0.74817 4.82688 0.74817 0 0 -6.18247 -22.49734 -51.19999 -7.86883 0 0 1.25333 4.19363 1.25333 4.19363m1 0c0 0 25.98724 -14.9263 43.11978 3.92703 0 0 8.82688 -0.25183 8.82688 -0.25183 0 0 -11.00864 -24.03201 -56.19999 -8.86883 0 0 4.25333 6.19363 4.25333 6.19363"
        fill="#3b434f" />
    <path
        d="M228.43835 224.52554c0 0 -25.45935 -14.47555 -43.64672 1.47293 0 0 -4.81077 0.74155 -4.81077 0.74155 0 0 6.16184 -22.29825 51.02912 -7.79919 0 0 -1.24915 4.15652 -1.24915 4.15652m-0.99664 0c0 0 -25.90054 -14.79422 -42.97589 3.89227 0 0 -8.79743 -0.2496 -8.79743 -0.2496 0 0 10.9719 -23.81934 56.01246 -8.79034 0 0 -4.23914 6.13882 -4.23914 6.13882"
        fill="#3b434f" />
</svg>
