<svg xmlns="http://www.w3.org/2000/svg" viewBox="0 0 520 520"><path id="App_Icon_Placeholder" data-name="App Icon Placeholder" d="M181.29,0H338.71c52.21,0,78.3,0,106.4,8.88a110.43,110.43,0,0,1,66,66C520,103,520,129.09,520,181.29V338.71c0,52.2,0,78.3-8.89,106.4a110.41,110.41,0,0,1-66,66C417,520,390.91,520,338.71,520H181.29c-52.2,0-78.29,0-106.39-8.89a110.41,110.41,0,0,1-66-66C0,417,0,390.91,0,338.71V181.29c0-52.2,0-78.3,8.89-106.4a110.43,110.43,0,0,1,66-66C103,0,129.09,0,181.29,0h0" fill="#fff"/><path d="M469.51,251.13a105.21,105.21,0,0,1-21.25,64.41q-.67,14.28-11,36.86-9.63,20.92-18.26,30.21-5,24.9-20.59,42.5-16.61,18.6-36.86,18.59-33.87,0-53.79-47.15a193.51,193.51,0,0,1-15.27-75.37q0-49.47,13.61-79.36Q320.76,210,347.32,210a50.29,50.29,0,0,1,14.61,2.32q11.62-20.92,26.56-26.89c.88-.22,1.33-1,1.33-2.32q0-10.29-15.61-39.51-49.48-93-102.27-93-42.83,0-94.79,51.3T125.2,194q0,16.93,16.6,35.86,22.91,25.9,25.9,31.88,99.94.67,99.94,137.79,0,47.49-39.51,81,20.58-39.84,20.59-78,0-41.5-20.59-84.34-24.24-50.13-60.1-55.78l1.66,3.65q32.54,9.3,54.12,60.1,18.59,43.17,18.59,82.68,0,30.22-10.29,53.46-13.62,30.54-39.84,30.55-24.24,0-47.15-27.56-20.92-1-34.86-31.87-11.63-25.56-11.62-49.8,0-14.61,2.32-23.91Q61.11,294.3,61.11,260.1q0-18.93,7.14-26.23t26.4-7.3q3,0,3-1,0-2.32-10.62-6.64h-.66q-31.21,1.33-31.21-38.52,0-19.59,13.28-48.48,19.92-44.15,68.9-75.54T235.1,25q33.53,0,71.72,8Q338,39.63,371.56,58.55q43.83,24.9,43.83,49.8a139.08,139.08,0,0,1-3.32,30.21l9.3,45.16a6.23,6.23,0,0,1,3.32-.66q20.58,0,32.71,18.59T469.51,251.13Zm-332.7,18.59Q115.56,235.86,97,235.86q-11.63,0-11.62,16.6,0,24.9,22.58,77.7Q114.9,284,136.82,269.73Zm210.51-11q-19.92,1.67-19.92,55.45a216.37,216.37,0,0,0,7,53.13q9.29,36.86,25.57,35.53,17.26-1.32,17.27-49.47A280.78,280.78,0,0,0,371.56,297Q363.26,257.11,347.32,258.77Zm20.25,70.06q2.65,28.56-.33,47.81-2.66,17.6-8,17.93-6,.67-12.62-15.94-8-18.93-10.29-46.48-.67-9.29-.66-18.26,0-45.82,12.29-47.15Q362.26,265.74,367.58,328.83Zm75.7-48.48q7.63-10.62,7.64-29.88,0-20.92-10.29-35.2Q428.34,198,405.43,198q-7,0-22.58,20.59,6,1.33,18.59,11,16.6,0,29.55,20.25Q441.28,265.42,443.28,280.35Z" fill="#a06" /></svg>